<svg xmlns="http://www.w3.org/2000/svg" width="22" height="22" viewBox="0 0 22 22">
  <g id="组_607" data-name="组 607" transform="translate(-1598 -168)">
    <rect id="矩形_126" data-name="矩形 126" width="22" height="22" transform="translate(1598 168)" fill="#fff" opacity="0"/>
    <g id="组_494" data-name="组 494" transform="translate(1588.276 168.852)">
      <path id="路径_58" data-name="路径 58" d="M118.6,128.336m-8.376,0a8.376,8.376,0,1,0,8.376-8.376A8.376,8.376,0,0,0,110.225,128.336Z" transform="translate(-96.127 -116.001)" fill="#8cf6fb"/>
      <path id="路径_59" data-name="路径 59" d="M23.676,3.949a.938.938,0,0,1,.967-1.606,9.849,9.849,0,1,1-10.128-.006.938.938,0,1,1,.963,1.61,7.975,7.975,0,1,0,8.2,0ZM19.574,0a.938.938,0,0,1,.938.938v7.5a.938.938,0,1,1-1.873,0V.938A.938.938,0,0,1,19.574,0Zm0,0" fill="#3c2dcb"/>
    </g>
  </g>
</svg>
