<svg xmlns="http://www.w3.org/2000/svg" width="22" height="22" viewBox="0 0 22 22">
  <g id="组_606" data-name="组 606" transform="translate(-1593 -120)">
    <rect id="矩形_125" data-name="矩形 125" width="22" height="22" transform="translate(1593 120)" fill="#fff" opacity="0"/>
    <g id="组_490" data-name="组 490" transform="translate(1594 121.387)">
      <path id="路径_48" data-name="路径 48" d="M386.354,154.146m-4.027,0a4.027,4.027,0,1,0,4.027-4.027A4.027,4.027,0,0,0,382.327,154.146Z" transform="translate(-374.788 -147.159)" fill="#b3f995"/>
      <path id="路径_49" data-name="路径 49" d="M190.558,595.677h-8.786a3.66,3.66,0,0,0-3.661,3.661V600.8a2.2,2.2,0,0,0,2.2,2.2h11.714a2.2,2.2,0,0,0,2.2-2.2v-1.464A3.66,3.66,0,0,0,190.558,595.677Z" transform="translate(-174.6 -583.931)" fill="#b3f995"/>
      <path id="路径_50" data-name="路径 50" d="M10.1,10.1A5.048,5.048,0,1,0,5.048,5.048,5.048,5.048,0,0,0,10.1,10.1Zm0-1.468a3.579,3.579,0,1,1,3.579-3.579A3.579,3.579,0,0,1,10.1,8.627ZM4.589,11.014H15.6A4.589,4.589,0,0,1,20.191,15.6v1.836a2.753,2.753,0,0,1-2.754,2.753H2.754A2.754,2.754,0,0,1,0,17.438V15.6a4.589,4.589,0,0,1,4.589-4.589Zm0,1.468a3.12,3.12,0,0,0-3.12,3.12v1.836a1.285,1.285,0,0,0,1.285,1.285H17.438a1.285,1.285,0,0,0,1.285-1.285V15.6a3.12,3.12,0,0,0-3.12-3.12H4.589Zm0,0" fill="#00b48a"/>
    </g>
  </g>
</svg>
