<?xml version="1.0" encoding="UTF-8"?>
<svg width="18.8073879px" height="18px" viewBox="0 0 18.8073879 18" version="1.1" xmlns="http://www.w3.org/2000/svg" xmlns:xlink="http://www.w3.org/1999/xlink">
    <title>zhongyingwen</title>
    <g id="页面-1" stroke="none" stroke-width="1" fill="none" fill-rule="evenodd">
        <g id="科茵_搜索结果页方案一" transform="translate(-1389.000000, -19.000000)" fill="#1ABC9C" fill-rule="nonzero">
            <g id="zhongyingwen" transform="translate(1389.000000, 19.000000)">
                <path d="M10.6575198,8.36833773 L10.4770449,8.36833773 L11.1704485,12.2248021 C11.6263852,12.0633245 12.0443272,11.8163588 12.4147757,11.4934037 C12.0348285,11.037467 11.7308707,10.5245383 11.4934037,9.98311346 L12.2248021,9.88812665 C12.4242744,10.2965699 12.6522427,10.6670185 12.9182058,10.9804749 C13.4596306,10.325066 13.8680739,9.45118734 14.162533,8.35883905 L10.6575198,8.36833773 Z M13.4216359,11.4934037 C13.8395778,11.8543536 14.3145119,12.1203166 14.846438,12.2817942 L15.1788918,12.3862797 L14.9794195,13.0986807 L14.6469657,12.9941953 C14.0105541,12.794723 13.4216359,12.4622691 12.9182058,12.0158311 C12.4527704,12.4337731 11.901847,12.7567282 11.3034301,12.9562005 L11.7688654,15.5588391 L8.99525066,15.5588391 L8.62480211,17.2591029 L17.3350923,17.2591029 C17.7435356,17.2591029 18.0759894,16.9266491 18.0759894,16.5182058 L18.0759894,3.92295515 C18.0759894,3.51451187 17.7435356,3.18205805 17.3350923,3.18205805 L9.55567282,3.18205805 L10.1350923,6.4116095 L10.116095,6.40211082 L10.1825858,6.75356201 L10.1920844,6.7060686 L10.353562,7.62744063 L12.1488127,7.62744063 L12.1488127,6.88654354 L13.5356201,6.88654354 L13.5356201,7.62744063 L15.8532982,7.62744063 L15.8532982,8.36833773 L14.8844327,8.36833773 C14.5614776,9.66965699 14.0675462,10.7145119 13.4216359,11.4934037 L13.4216359,11.4934037 Z M8.2353562,15.5493404 L1.4817942,15.5493404 C0.664907652,15.5493404 -8.23879223e-17,14.8844327 -8.23879223e-17,14.0675462 L-8.23879223e-17,1.4817942 C-8.23879223e-17,0.655408971 0.664907652,5.93193041e-16 1.4817942,5.93193041e-16 L8.89076517,5.93193041e-16 L9.34670185,2.44116095 L17.3255937,2.44116095 C18.1424802,2.44116095 18.8073879,3.1060686 18.8073879,3.92295515 L18.8073879,16.5182058 C18.8073879,17.3350923 18.1424802,18 17.3255937,18 L7.70343008,18 L8.2353562,15.5493404 Z M4.73984169,9.85013193 L4.73984169,9.07124011 L3.27704485,9.07124011 L3.27704485,7.92189974 L4.6353562,7.92189974 L4.6353562,7.1525066 L3.27704485,7.1525066 L3.27704485,6.17414248 L4.73984169,6.17414248 L4.73984169,5.40474934 L2.42216359,5.40474934 L2.42216359,9.85013193 L4.73984169,9.85013193 L4.73984169,9.85013193 Z M8.31134565,9.85013193 L8.31134565,7.62744063 C8.31134565,7.22849604 8.21635884,6.91503958 8.03588391,6.69656992 C7.85540897,6.47810026 7.57994723,6.37361478 7.21899736,6.37361478 C7.01002639,6.37361478 6.82005277,6.4116095 6.6585752,6.49709763 C6.49709763,6.58258575 6.36411609,6.71556728 6.27862797,6.87704485 L6.23113456,6.87704485 L6.1171504,6.44010554 L5.47124011,6.44010554 L5.47124011,9.85013193 L6.30712401,9.85013193 L6.30712401,8.24485488 C6.30712401,7.84591029 6.36411609,7.56094987 6.46860158,7.38047493 C6.57308707,7.20949868 6.74406332,7.12401055 6.98153034,7.12401055 C7.1525066,7.12401055 7.27598945,7.18100264 7.36147757,7.30448549 C7.43746702,7.42796834 7.48496042,7.60844327 7.48496042,7.85540897 L7.48496042,9.85013193 L8.31134565,9.85013193 L8.31134565,9.85013193 Z" id="形状"></path>
            </g>
        </g>
    </g>
</svg>