<?xml version="1.0" encoding="UTF-8"?>
<svg width="18.8780488px" height="18px" viewBox="0 0 18.8780488 18" version="1.1" xmlns="http://www.w3.org/2000/svg" xmlns:xlink="http://www.w3.org/1999/xlink">
    <title>zhongyingwenqiehuan_zhongwen</title>
    <g id="页面-1" stroke="none" stroke-width="1" fill="none" fill-rule="evenodd">
        <g id="zhongyingwenqiehuan_zhongwen" fill="#1ABC9C" fill-rule="nonzero">
            <path d="M8.78048779,7.48669419e-16 L9.26868292,2.19512196 L16.6829268,2.19512196 C17.8394885,2.19494384 18.7977881,3.09217339 18.8736585,4.2462439 L18.8780488,4.39024391 L18.8780488,15.804878 C18.8780488,16.9614398 17.9809973,17.9197393 16.8269268,17.9956098 L16.6829268,18 L6.42731707,18 L7.11219512,15.804878 L1.75609755,15.804878 C0.786231655,15.804878 -1.87167355e-16,15.0186464 -1.87167355e-16,14.0487805 L-1.87167355e-16,1.75609757 C-1.87167355e-16,1.29035154 0.185016882,0.843681252 0.514349058,0.514349072 C0.843681234,0.185016892 1.29035152,7.48669419e-16 1.75609755,7.48669419e-16 L8.78048779,7.48669419e-16 Z M16.6829268,3.07317074 L9.46360975,3.07317074 L12.2926829,15.804878 L8.03326828,15.804878 L7.6214634,17.1219512 L16.6829268,17.1219512 C17.3613265,17.1219512 17.9287273,16.6065835 17.9938537,15.9313171 L18,15.804878 L18,4.39024391 C18,3.71184418 17.4846323,3.14444345 16.8093658,3.07931707 L16.6829268,3.07317074 Z M14.0206829,7.58809757 L14.0206829,8.39941464 L12.348878,8.39941464 L12.348878,9.27834147 L13.8977561,9.27834147 L13.8977561,10.0589268 L12.348878,10.0589268 L12.348878,11.0423415 L14.1067317,11.0423415 L14.1067317,11.8536585 L11.4146341,11.8536585 L11.4146341,7.58809757 L14.0206829,7.58809757 L14.0206829,7.58809757 Z M16.4669268,8.47317074 C16.6715122,8.47317074 16.8444878,8.49687806 16.9858536,8.54341464 C17.1280975,8.59082927 17.2413658,8.66195122 17.3274146,8.75590244 C17.4134634,8.84985365 17.4749268,8.96663414 17.5118049,9.10360975 C17.5486829,9.24058536 17.5671219,9.40126829 17.5671219,9.58565853 L17.5671219,11.8536585 L16.6759024,11.8536585 L16.6759024,9.81921952 L16.6732683,9.71385367 C16.670407,9.65310339 16.66307,9.59264679 16.6513171,9.53297561 C16.6389931,9.46295058 16.6104238,9.39679011 16.5679024,9.33980489 C16.5258329,9.28830632 16.4692284,9.25067196 16.4054634,9.23180489 C16.3175411,9.20698129 16.2263436,9.19572964 16.1350244,9.19843902 C15.9506341,9.19843902 15.7987317,9.23092683 15.6801951,9.29678049 C15.5616585,9.36263415 15.4773658,9.48117073 15.4281951,9.6532683 L15.4281951,11.8536585 L14.5369756,11.8536585 L14.5369756,8.53463414 L15.4281951,8.53463414 L15.4281951,8.93414635 L15.4879024,8.84634147 C15.5785778,8.73122628 15.6978651,8.64191218 15.8338537,8.58731707 C16.0351588,8.50744663 16.2504031,8.46863698 16.4669268,8.47317074 L16.4669268,8.47317074 Z M4.77658535,4.94517074 L4.77658535,6.09014634 L2.47960974,6.09014634 L2.47960974,9.30731708 L4.77658535,9.30731708 L4.77658535,11.267122 L5.69678048,11.267122 L5.69678048,9.30731708 L7.94458536,9.30731708 L7.94458536,6.09014634 L5.69678048,6.09014634 L5.69678048,4.98029269 L4.77658535,4.94517074 Z M4.77658535,6.98224391 L4.77658535,8.42224391 L3.41385366,8.42224391 L3.41385366,6.98224391 L4.77658535,6.98224391 L4.77658535,6.98224391 Z M7.01736585,6.98224391 L7.01736585,8.42224391 L5.69678048,8.42224391 L5.69678048,6.98224391 L7.01736585,6.98224391 L7.01736585,6.98224391 Z" id="形状"></path>
        </g>
    </g>
</svg>