<?xml version="1.0" encoding="utf-8"?>
<svg version="1.1" xmlns:xlink="http://www.w3.org/1999/xlink" width="588px" height="135px" xmlns="http://www.w3.org/2000/svg">
  <g transform="matrix(1 0 0 1 -54 -625 )">
    <path d="M 1 102.744525547445  C -0.867787705136656 97.5219602374991  28.2843244574992 133.9786738188  43 128  C 59.9283136397918 121.122377205019  100.792824135474 -1.45943790122368  116 1  C 142.850498932151 5.34249826061011  179.771387853434 110.411559768391  208 116  C 246.597131740129 123.641104094006  253.673664726678 63.3406798830644  301 66  C 324.958438856494 67.346251681088  355.920291827195 133.150259112157  379 131  C 393.74847576253 129.625933908637  446.958813443571 77.862504668409  461 77  C 487.90992108029 75.3470105987844  517.02426897585 87.6092835527601  544 86  C 563.454336052828 84.8394181788195  570.705863482982 64.1932892852979  585 66  " stroke-width="2" stroke="#0066ff" fill="none" transform="matrix(1 0 0 1 55 626 )" />
  </g>
</svg>