<?xml version="1.0" encoding="utf-8"?>
<svg version="1.1" xmlns:xlink="http://www.w3.org/1999/xlink" width="47px" height="40px" xmlns="http://www.w3.org/2000/svg">
  <g transform="matrix(1 0 0 1 -763 -62 )">
    <path d="M 45.7848837209302 27.3958333333333  C 46.2693798449612 27.8819444444444  46.5116279069767 28.4722222222222  46.5116279069767 29.1666666666667  L 46.5116279069767 37.5  C 46.5116279069767 38.1944444444444  46.2693798449612 38.7847222222222  45.7848837209302 39.2708333333333  C 45.3003875968992 39.7569444444444  44.7120708748615 40  44.0199335548173 40  L 35.7142857142857 40  C 35.0221483942414 40  34.4338316722037 39.7569444444444  33.9493355481727 39.2708333333333  C 33.4648394241417 38.7847222222222  33.2225913621262 38.1944444444444  33.2225913621262 37.5  L 33.2225913621262 29.1666666666667  C 33.2225913621262 28.4722222222222  33.4648394241417 27.8819444444444  33.9493355481727 27.3958333333333  C 34.4338316722037 26.9097222222222  35.0221483942414 26.6666666666667  35.7142857142857 26.6666666666667  L 38.2059800664451 26.6666666666667  L 38.2059800664451 21  L 24.9169435215947 21  L 24.9169435215947 26.6666666666667  L 27.4086378737542 26.6666666666667  C 28.1007751937984 26.6666666666667  28.6890919158361 26.9097222222222  29.1735880398671 27.3958333333333  C 29.6580841638981 27.8819444444444  29.9003322259136 28.4722222222222  29.9003322259136 29.1666666666667  L 29.9003322259136 37.5  C 29.9003322259136 38.1944444444444  29.6580841638981 38.7847222222222  29.1735880398671 39.2708333333333  C 28.6890919158361 39.7569444444444  28.1007751937984 40  27.4086378737542 40  L 19.1029900332226 40  C 18.4108527131783 40  17.8225359911406 39.7569444444444  17.3380398671096 39.2708333333333  C 16.8535437430786 38.7847222222222  16.6112956810631 38.1944444444444  16.6112956810631 37.5  L 16.6112956810631 29.1666666666667  C 16.6112956810631 28.4722222222222  16.8535437430786 27.8819444444444  17.3380398671096 27.3958333333333  C 17.8225359911406 26.9097222222222  18.4108527131783 26.6666666666667  19.1029900332226 26.6666666666667  L 21.594684385382 26.6666666666667  L 21.594684385382 21  L 8.30564784053161 21  L 8.30564784053161 26.6666666666667  L 10.7973421926911 26.6666666666667  C 11.4894795127353 26.6666666666667  12.077796234773 26.9097222222222  12.562292358804 27.3958333333333  C 13.046788482835 27.8819444444444  13.2890365448505 28.4722222222222  13.2890365448505 29.1666666666667  L 13.2890365448505 37.5  C 13.2890365448505 38.1944444444444  13.046788482835 38.7847222222222  12.562292358804 39.2708333333333  C 12.077796234773 39.7569444444444  11.4894795127353 40  10.7973421926911 40  L 2.49169435215947 40  C 1.79955703211522 40  1.21124031007753 39.7569444444444  0.726744186046517 39.2708333333333  C 0.242248062015506 38.7847222222222  0 38.1944444444444  0 37.5  L 0 29.1666666666667  C 0 28.4722222222222  0.242248062015506 27.8819444444444  0.726744186046517 27.3958333333333  C 1.21124031007753 26.9097222222222  1.79955703211522 26.6666666666667  2.49169435215947 26.6666666666667  L 4.98338870431894 26.6666666666667  L 4.98338870431894 21.6666666666667  C 4.98338870431894 20.7638888888889  5.31215393133994 19.9826388888889  5.96968438538204 19.3229166666667  C 6.62721483942414 18.6631944444444  7.405869324474 18.3333333333333  8.30564784053161 19  L 21.594684385382 19  L 21.594684385382 13.3333333333333  L 19.1029900332226 13.3333333333333  C 18.4108527131783 13.3333333333333  17.8225359911406 13.0902777777778  17.3380398671096 12.6041666666667  C 16.8535437430786 12.1180555555556  16.6112956810631 11.5277777777778  16.6112956810631 10.8333333333333  L 16.6112956810631 2.5  C 16.6112956810631 1.80555555555556  16.8535437430786 1.21527777777777  17.3380398671096 0.729166666666671  C 17.8225359911406 0.243055555555557  18.4108527131783 0  19.1029900332226 0  L 27.4086378737542 0  C 28.1007751937984 0  28.6890919158361 0.243055555555557  29.1735880398671 0.729166666666671  C 29.6580841638981 1.21527777777777  29.9003322259136 1.80555555555556  29.9003322259136 2.5  L 29.9003322259136 10.8333333333333  C 29.9003322259136 11.5277777777778  29.6580841638981 12.1180555555556  29.1735880398671 12.6041666666667  C 28.6890919158361 13.0902777777778  28.1007751937984 13.3333333333333  27.4086378737542 13.3333333333333  L 24.9169435215947 13.3333333333333  L 24.9169435215947 19  L 38.2059800664451 19  C 39.1057585825027 18.3333333333333  39.8844130675526 18.6631944444444  40.5419435215947 19.3229166666667  C 41.1994739756368 19.9826388888889  41.5282392026578 20.7638888888889  41.5282392026578 21.6666666666667  L 41.5282392026578 26.6666666666667  L 44.0199335548173 26.6666666666667  C 44.7120708748615 26.6666666666667  45.3003875968992 26.9097222222222  45.7848837209302 27.3958333333333  Z " fill-rule="nonzero" fill="#1296db" stroke="none" transform="matrix(1 0 0 1 763 62 )" />
  </g>
</svg>