<?xml version="1.0" encoding="utf-8"?>
<svg version="1.1" xmlns:xlink="http://www.w3.org/1999/xlink" width="44px" height="40px" xmlns="http://www.w3.org/2000/svg">
  <g transform="matrix(1 0 0 1 -1160 -65 )">
    <path d="M 0 32.7272727272727  L 9.963768115942 32.7272727272727  L 9.963768115942 36.3636363636364  L 0 36.3636363636364  L 0 32.7272727272727  Z M 12.6811594202898 29.0909090909091  L 19.927536231884 29.0909090909091  C 20.4181763285023 29.0909090909091  20.8427687198068 29.2708333333333  21.201313405797 29.6306818181818  C 21.5598580917874 29.9905303030303  21.7391304347825 30.4166666666667  21.7391304347825 30.9090909090909  L 21.7391304347825 38.1818181818182  C 21.7391304347825 38.6742424242424  21.5598580917874 39.1003787878788  21.201313405797 39.4602272727273  C 20.8427687198068 39.8200757575758  20.4181763285023 40  19.927536231884 40  L 12.6811594202898 40  C 12.1905193236714 40  11.7659269323672 39.8200757575758  11.4073822463768 39.4602272727273  C 11.0488375603866 39.1003787878788  10.8695652173913 38.6742424242424  10.8695652173913 38.1818181818182  L 10.8695652173913 30.9090909090909  C 10.8695652173913 30.4166666666667  11.0488375603866 29.9905303030303  11.4073822463768 29.6306818181818  C 11.7659269323672 29.2708333333333  12.1905193236714 29.0909090909091  12.6811594202898 29.0909090909091  Z M 0 18.1818181818182  L 24.4565217391305 18.1818181818182  L 24.4565217391305 21.8181818181818  L 0 21.8181818181818  L 0 18.1818181818182  Z M 0 3.63636363636364  L 6.34057971014499 3.63636363636364  L 6.34057971014499 7.27272727272727  L 0 7.27272727272727  L 0 3.63636363636364  Z M 22.644927536232 32  L 43.4782608695652 32  L 43.4782608695652 36  L 22.644927536232 36  L 22.644927536232 32  Z M 9.05797101449275 0  L 16.304347826087 0  C 16.7949879227053 0  17.2195803140096 0.179924242424235  17.578125 0.539772727272734  C 17.9366696859904 0.899621212121204  18.1159420289855 1.32575757575758  18.1159420289855 1.81818181818181  L 18.1159420289855 9.09090909090909  C 18.1159420289855 9.58333333333333  17.9366696859904 10.0094696969697  17.578125 10.3693181818182  C 17.2195803140096 10.7291666666667  16.7949879227053 10.9090909090909  16.304347826087 10.9090909090909  L 9.05797101449275 10.9090909090909  C 8.56733091787441 10.9090909090909  8.14273852657016 10.7291666666667  7.78419384057975 10.3693181818182  C 7.42564915458934 10.0094696969697  7.24637681159425 9.58333333333333  7.24637681159425 9.09090909090909  L 7.24637681159425 1.81818181818181  C 7.24637681159425 1.32575757575758  7.42564915458934 0.899621212121204  7.78419384057975 0.539772727272734  C 8.14273852657016 0.179924242424235  8.56733091787441 0  9.05797101449275 0  Z M 27.1739130434783 14.5454545454545  L 34.4202898550725 14.5454545454545  C 34.9109299516908 14.5454545454545  35.3355223429951 14.7253787878788  35.6940670289855 15.0852272727273  C 36.0526117149759 15.4450757575758  36.231884057971 15.8712121212121  36.231884057971 16.3636363636364  L 36.231884057971 23.6363636363636  C 36.231884057971 24.1287878787879  36.0526117149759 24.5549242424242  35.6940670289855 24.9147727272727  C 35.3355223429951 25.2746212121212  34.9109299516908 25.4545454545455  34.4202898550725 25.4545454545455  L 27.1739130434783 25.4545454545455  C 26.6832729468599 25.4545454545455  26.2586805555557 25.2746212121212  25.9001358695652 24.9147727272727  C 25.5415911835748 24.5549242424242  25.3623188405797 24.1287878787879  25.3623188405797 23.6363636363636  L 25.3623188405797 16.3636363636364  C 25.3623188405797 15.8712121212121  25.5415911835748 15.4450757575758  25.9001358695652 15.0852272727273  C 26.2586805555557 14.7253787878788  26.6832729468599 14.5454545454545  27.1739130434783 14.5454545454545  Z M 37.1376811594203 18.1818181818182  L 43.4782608695652 18.1818181818182  L 43.4782608695652 21.8181818181818  L 37.1376811594203 21.8181818181818  L 37.1376811594203 18.1818181818182  Z M 19.0217391304348 4  L 43.4782608695652 4  L 43.4782608695652 8  L 19.0217391304348 8  L 19.0217391304348 4  Z " fill-rule="nonzero" fill="#1296db" stroke="none" transform="matrix(1 0 0 1 1160 65 )" />
  </g>
</svg>