<?xml version="1.0" encoding="utf-8"?>
<svg version="1.1" xmlns:xlink="http://www.w3.org/1999/xlink" width="40px" height="48px" xmlns="http://www.w3.org/2000/svg">
  <g transform="matrix(1 0 0 1 -96 -59 )">
    <path d="M 16.9665134602758 10.9359239794022  L 17.2291529875246 10.9359239794022  C 17.0365506675421 10.9536196492718  16.9008535784636 11.0465219160871  16.8220617202889 11.2146307798482  C 16.7432698621142 11.3827396436092  16.6688553293938 11.4667940754897  16.5988181221274 11.4667940754897  C 16.5112716130444 11.4844897453593  16.467498358503 11.4402505706854  16.467498358503 11.3340765514679  C 16.467498358503 11.1217285130329  16.6338367257606 10.989010989011  16.9665134602758 10.9359239794022  Z M 19.5929087327643 11.0686415034241  C 19.6454366382141 11.1748155226416  19.6191726854892 11.2544460370547  19.5141168745896 11.3075330466635  C 19.4440796673233 11.3252287165331  19.3434011818779 11.2677177894569  19.2120814182534 11.1350002654351  C 19.080761654629 11.0022827414132  18.9275552637339 10.9624674842066  18.752462245568 11.0155544938154  C 19.1726854891661 10.8209021252499  19.4528343182316 10.8385977951195  19.5929087327643 11.0686415034241  Z M 10.3742613263296 22.6946966077401  C 10.356752024513 22.6504574330661  10.3304880717881 22.6327617631965  10.2954694681549 22.6416095981313  C 10.2254322608886 22.6239139282618  10.1729043554388 22.6504574330661  10.1378857518056 22.7212401125445  C 10.1028671481725 22.7920227920228  10.0634712190851 22.9026207287077  10.0196979645437 23.0530339225991  C 9.97592471000219 23.2034471164906  9.92777413000657 23.3228928881103  9.8752462245568 23.4113712374582  C 9.82271831910703 23.4998495868061  9.73517181002407 23.6148714409584  9.61260669730794 23.7564367999151  C 9.43751367914204 23.9510891684805  9.42875902823374 24.057263187698  9.58634274458306 24.0749588575676  C 9.65637995184942 24.0926545274371  9.7658130882031 24.0307196828936  9.91464215364412 23.8891543239369  C 10.0634712190851 23.7475889649803  10.1729043554388 23.588327936154  10.2429415627052 23.4113712374582  C 10.2604508645218 23.3582842278495  10.2779601663384 23.2963493833059  10.2954694681549 23.2255667038276  C 10.3129787699716 23.1547840243492  10.3304880717881 23.1016970147405  10.3479973736047 23.0663056750013  C 10.3655066754213 23.0309143352622  10.3786386517838 22.9910990780556  10.3873933026921 22.9468599033816  C 10.3961479536003 22.9026207287077  10.4005252790545 22.8672293889685  10.4005252790545 22.8406858841641  L 10.4005252790545 22.761055369751  C 10.4005252790545 22.761055369751  10.3917706281462 22.738935782414  10.3742613263296 22.6946966077401  Z M 31.1753118844386 31.5734989648033  C 31.8581746552856 31.670825149086  32.3834537097833 31.8699014351188  32.7511490479317 32.1707278229017  C 32.7511490479317 31.8522057652492  32.2696432479755 31.480596697988  31.306631648063 31.055900621118  C 31.3766688553294 30.7904655730743  31.4423287371416 30.5471501123675  31.5036112934997 30.3259542389977  C 31.5648938498577 30.1047583656279  31.6086671043992 29.8747146573234  31.6349310571241 29.635823114084  C 31.661195009849 29.3969315708446  31.6874589625739 29.2067031197466  31.7137229152987 29.0651377607899  C 31.7399868680236 28.9235724018333  31.7443641934778 28.7244961158005  31.7268548916612 28.4679089026915  C 31.7093455898446 28.2113216895826  31.7005909389363 28.0387889083541  31.7005909389363 27.9503105590062  C 31.7005909389363 27.8618322096583  31.6699496607573 27.6671798410929  31.6086671043992 27.36635345331  C 31.5473845480412 27.0655270655271  31.512365944408 26.8841464493638  31.5036112934997 26.8222116048203  C 31.4948566425914 26.7602767602768  31.4510833880499 26.539080886907  31.3722915298752 26.1586239847109  C 31.2934996717006 25.7781670825149  31.245349091705 25.5436994567429  31.2278397898884 25.455221107395  C 31.0527467717225 24.605828953655  30.6412781790326 23.6945019553715  29.9934340118188 22.7212401125445  C 29.3455898446049 21.7479782697174  28.7152549792077 21.084390649608  28.1024294156271 20.7304772522164  C 28.5226526592252 21.084390649608  29.021667760998 21.8187609491957  29.5994747209455 22.9335881509795  C 31.1227839789888 25.8002866698519  31.5955351280368 28.2599847817239  31.0177281680893 30.3126824865955  C 30.8251258481068 31.0205092813788  30.3873933026921 31.3921183486401  29.7045305318451 31.4275096883793  C 29.1617421755307 31.4982923678576  28.8246881155614 31.3346074215639  28.693368351937 30.9364548494983  C 28.5620485883125 30.5383022774327  28.4920113810462 29.7995080603776  28.4832567301379 28.7200721983331  C 28.4745020792296 27.6406363362885  28.3738235937842 26.6939179982658  28.1812212738017 25.879917184265  C 28.0236375574524 25.1897860593513  27.8529218647406 24.5792854488507  27.6690741956664 24.0484153527632  C 27.4852265265923 23.5175452566757  27.3145108338805 23.1149687671427  27.1569271175312 22.8406858841641  C 26.9993434011819 22.5664030011856  26.8636463121033 22.3496310452832  26.7498358502955 22.190370016457  C 26.6360253884876 22.0311089876307  26.5222149266798 21.8983914636089  26.408404464872 21.7922174443914  C 26.2945940030641 21.6860434251739  26.2289341212519 21.6241085806303  26.2114248194353 21.6064129107607  C 25.9662945940031 20.5092813788466  25.6949004158459 19.5979543805631  25.3972422849639 18.8724319159102  C 25.0995841540819 18.1469094512573  24.8413219522872 17.651430694909  24.6224556795798 17.3859956468652  C 24.4035894068724 17.1205605988215  24.1978551105275 16.8285820459733  24.005252790545 16.5100599883209  C 23.8126504705625 16.1915379306684  23.6813307069381 15.8376245332767  23.6112934996717 15.4483197961459  C 23.5412562924053 15.0767107288846  23.5937841978551 14.6033515598733  23.768877216021 14.0282422891119  C 23.9439702341869 13.4531330183504  23.9833661632742 13.0151651890782  23.887065003283 12.7143388012953  C 23.7907638432918 12.4135124135124  23.4011818778726 12.1923165401426  22.7183191070256 12.050751181186  C 22.4556795797768 11.9976641715772  22.0660976143576 11.838403142751  21.5495732107682 11.5729680947072  C 21.0330488071788 11.3075330466635  20.7222586999343 11.1659676877068  20.6172028890348 11.1482720178372  C 20.4771284745021 11.1305763479676  20.3808273145108 10.9005326396631  20.3282994090611 10.4581408929235  C 20.2757715036113 10.0157491461839  20.3458087108777 9.56450956450956  20.5384110308601 9.10442214790041  C 20.7310133508426 8.64433473129125  21.0461807835413 8.40544318805188  21.483913328956 8.38774751818231  C 22.1317574961698 8.33466050857355  22.5782446924929 8.60009555661729  22.8233749179252 9.18405266231353  C 23.0685051433574 9.76800976800978  23.1035237469906 10.2811841942277  22.9284307288247 10.7235759409673  C 22.7358284088422 11.0597936684893  22.7183191070256 11.2942612942613  22.8759028233749 11.4269788182832  C 23.0334865397242 11.559696342305  23.2961260669731 11.5641202597724  23.6638214051215 11.4402505706854  C 23.8914423287371 11.369467891207  24.005252790545 11.0509458335545  24.005252790545 10.4846843977279  L 24.005252790545 9.50257471996602  C 23.917706281462 8.97170462387854  23.7995184942 8.52931287713896  23.650689428759 8.1753994797473  C 23.501860363318 7.82148608235565  23.3180126942438 7.55162711684451  23.0991464215364 7.36582258321388  C 22.8802801488291 7.18001804958327  22.6745458524841 7.0473005255614  22.4819435325016 6.96767001114827  C 22.2893412125192 6.88803949673515  22.0529656379952 6.82168073472421  21.7728168089297 6.76859372511547  C 19.8993215145546 6.91015908407212  19.1201575837163 8.09576896533417  19.435325016415 10.3254233689016  C 19.435325016415 10.5908584169454  19.4265703655067 10.7235759409673  19.4090610636901 10.7235759409673  C 19.2514773473408 10.564314912141  18.9932151455461 10.4714126453257  18.634274458306 10.4448691405213  C 18.2753337710659 10.4183256357169  17.9864302910921 10.4227495531843  17.7675640183848 10.4581408929235  C 17.5486977456774 10.4935322326627  17.4130006565988 10.4492930579887  17.360472751149 10.3254233689016  C 17.3779820529656 9.3167701863354  17.2379076384329 8.52046504220417  16.9402495075509 7.93650793650794  C 16.6425913766689 7.35255083081171  16.2486320857956 7.05172444302879  15.7583716349311 7.03402877315921  C 15.2856204858831 7.01633310328963  14.9223024731889 7.25964856399639  14.6684175968483 7.7639751552795  C 14.4145327205078 8.26830174656261  14.2700809805209 8.7947479251827  14.2350623768877 9.34331369113978  C 14.2175530750711 9.60874873918353  14.2481943532502 9.9361186317708  14.3269862114248 10.3254233689016  C 14.4057780695995 10.7147281060325  14.5195885314073 11.0465219160871  14.6684175968483 11.3208047990657  C 14.8172466622893 11.5950876820442  14.9529437513679 11.7145334536639  15.075508864084 11.6791421139247  C 15.25060188225 11.626055104316  15.3906762967827 11.5021854152289  15.4957321076822 11.3075330466635  C 15.5657693149486 11.1482720178372  15.5044867585905 11.0774893383589  15.311884438608 11.0951850082285  C 15.1893193258919 11.0951850082285  15.0536222368133 10.966891401674  14.9047931713723 10.7103041885651  C 14.7559641059313 10.4537169754561  14.6727949223025 10.1573145051406  14.6552856204859 9.82109677761852  C 14.6377763186693 9.43179204048769  14.7165681768439 9.10442214790041  14.8916611950098 8.83898709985667  C 15.0667542131758 8.57355205181292  15.3644123440578 8.44968236272584  15.7846355876559 8.46737803259542  C 16.082293718538 8.46737803259542  16.3186692930619 8.65318256622604  16.4937623112278 9.02479163348728  C 16.6688553293938 9.39640070074853  16.7520245130225 9.7414662632054  16.7432698621142 10.0599883208579  C 16.734515211206 10.3785103785104  16.7213832348435 10.5731627470758  16.7038739330269 10.6439454265541  C 16.3186692930619 10.9093804745979  16.0472751149048 11.1659676877068  15.8896913985555 11.413707065881  C 15.7496169840228 11.626055104316  15.5088640840446 11.8339792252836  15.1674326986211 12.0374794287838  C 14.8260013131976 12.240979632284  14.6465309695776 12.3515775689689  14.629021667761 12.3692732388385  C 14.4014007441453 12.6170126170126  14.2657036550668 12.855904160252  14.2219304005253 13.0859478685566  C 14.1781571459838 13.3159915768611  14.243817027796 13.4752526056874  14.4189100459619 13.5637309550353  C 14.6640402713942 13.705296313992  14.8829065441016 13.8778290952204  15.075508864084 14.0813292987206  C 15.2681111840665 14.2848295022208  15.4081855985993 14.4529383659819  15.4957321076822 14.5856558900037  C 15.5832786167652 14.7183734140256  15.7452396585686 14.8333952681779  15.9816152330926 14.9307214524606  C 16.2179908076165 15.0280476367433  16.528780914861 15.0855585638194  16.913985554826 15.103254233689  C 17.7369227402057 15.1386455734282  18.6298971328518 15.0059280494063  19.5929087327643 14.7051016616234  C 19.6279273363975 14.6874059917538  19.8292843072882 14.6254711472103  20.1969796454366 14.5192971279928  C 20.564674983585 14.4131231087753  20.8667104399212 14.32022084196  21.1030860144452 14.2405903275469  C 21.3394615889691 14.1609598131337  21.5977237907638 14.0459379589814  21.8778726198293 13.89552476509  C 22.1580214488947 13.7451115711985  22.3418691179689 13.5902744598397  22.4294156270519 13.4310134310134  C 22.5869993434012 13.1832740528393  22.7620923615671 13.1124913733609  22.9546946815496 13.2186653925784  C 23.0422411906325 13.2717524021872  23.0991464215364 13.3469589991329  23.1254103742613 13.4442851834156  C 23.1516743269862 13.5416113676983  23.1254103742613 13.6477853869158  23.0466185160867 13.7628072410681  C 22.967826657912 13.8778290952204  22.8233749179252 13.9618835271009  22.6132632961261 14.0149705367097  C 22.2630772597943 14.1211445559272  21.7684394834756 14.3113730070252  21.1293499671701 14.5856558900037  C 20.4902604508645 14.8599387729822  20.0919238345371 15.0324715542107  19.9343401181878 15.103254233689  C 19.1639308382578 15.4394719612111  18.5511052746772 15.6429721647113  18.0958634274458 15.7137548441896  C 17.6581308820311 15.8022331935375  16.9665134602758 15.784537523668  16.0210111621799 15.6606678345809  C 15.845918144014 15.6252764948417  15.7671262858394 15.6429721647113  15.7846355876559 15.7137548441896  C 15.8021448894725 15.784537523668  15.9509739549136 15.952646387429  16.231122783979 16.2180814354727  C 16.6688553293938 16.6250818424732  17.2554169402495 16.8197342110386  17.9908076165463 16.802038541169  C 18.2884657474283 16.7843428712994  18.6036331801269 16.7224080267559  18.9363099146422 16.6162340075384  C 19.2689866491574 16.5100599883209  19.584154081856 16.3861902992338  19.881812212738 16.2446249402771  C 20.17947034362 16.1030595813205  20.4727511490479 15.9482224699616  20.7616546290217 15.7801136062006  C 21.0505581089954 15.6120047424395  21.3131976362443 15.4615915485481  21.5495732107682 15.3288740245262  C 21.7859487852922 15.1961565005043  22.0004377325454 15.0899824812868  22.1930400525279 15.0103519668737  C 22.3856423725104 14.9307214524606  22.5388487634056 14.9086018651236  22.6526592252134 14.9439932048628  C 22.7664696870212 14.9793845446019  22.8408842197417 15.0767107288846  22.8759028233749 15.2359717577109  C 22.8759028233749 15.27136309745  22.8671481724666 15.3111783546566  22.84963887065 15.3554175293306  C 22.8321295688335 15.3996567040045  22.7971109652003 15.4438958786785  22.7445830597505 15.4881350533524  C 22.6920551543007 15.5323742280264  22.639527248851 15.572189485233  22.5869993434012 15.6075808249721  C 22.5344714379514 15.6429721647113  22.4600569052309 15.6872113393853  22.3637557452397 15.740298348994  C 22.2674545852484 15.7933853586027  22.1886627270738 15.8332006158093  22.1273801707157 15.8597441206137  C 22.0660976143576 15.8862876254181  21.9785511052747 15.930526800092  21.8647406434668 15.9924616446356  C 21.750930181659 16.0543964891791  21.6677609980302 16.0942117463857  21.6152330925804 16.1119074162552  C 21.1249726417159 16.3596467944294  20.534033705406 16.7489515315602  19.8424162836507 17.2798216276477  C 19.1507988618954 17.8106917237352  18.5686145764938 18.1911486259312  18.0958634274458 18.4211923342358  C 17.6231122783979 18.6512360425404  17.1941343838915 18.6600838774752  16.8089297439265 18.4477358390402  C 16.4412344057781 18.2530834704748  15.8896913985555 17.607191520235  15.1543007222587 16.5100599883209  C 14.7690960822937 15.9614942223638  14.5502298095863 15.7668418537984  14.4977019041366 15.9261028826246  C 14.48019260232 15.9791898922334  14.4714379514117 16.0676682415813  14.4714379514117 16.1915379306684  C 14.4714379514117 16.6339296774079  14.3401181877873 17.1338323512237  14.0774786605384 17.6912459521155  C 13.8148391332896 18.2486595530074  13.5565769314949 18.7397143918883  13.3026920551543 19.1644104687583  C 13.0488071788137 19.5891065456283  12.8649595097395 20.1022809718462  12.7511490479317 20.703933747412  C 12.6373385861239 21.3055865229778  12.7380170715693 21.8630001238697  13.0531845042679 22.3761745500876  C 12.6504705624863 22.4823485693051  12.1033048807179 23.2786537134363  11.4116874589626 24.7650899824813  C 10.7200700372073 26.2515262515263  10.3042241190632 27.4990709773319  10.1641497045305 28.5077241598981  C 10.1291311008974 28.8262462175506  10.1159991245349 29.4367468280512  10.1247537754432 30.3392259913999  C 10.1335084263515 31.2417051547486  10.0853578463559 31.7637274159013  9.98030203545633 31.905292774858  C 9.84022762092361 32.329988851728  9.58634274458306 32.3565323565324  9.21864740643467 31.9849232892711  C 8.65834974830379 31.436357523314  8.34318231560516 30.6046610394437  8.27314510833881 29.4898338376599  C 8.23812650470563 28.9943550813116  8.27314510833881 28.4988763249633  8.37820091923834 28.003397568615  C 8.44823812650471 27.6671798410929  8.4394834755964 27.5079188122666  8.35193696651346 27.5256144821362  C 8.31691836288029 27.5433101520058  8.2818997592471 27.5875493266798  8.24688115561392 27.6583320061581  C 7.61654629021668 28.808550547681  7.70409279929963 30.2772911468564  8.50952068286277 32.0645538036842  C 8.59706719194573 32.2769018421192  8.8159334646531 32.5246412202934  9.16611950098491 32.8077719382067  C 9.5163055373167 33.0909026561201  9.72641715911578 33.2678593548159  9.79645436638214 33.3386420342942  C 10.1466404027139 33.7456424412946  11.0571240971766 34.5463715028932  12.5279054497702 35.7408292190901  C 13.9986868023637 36.9352869352869  14.8128693368352 37.6121463077985  14.9704530531845 37.7714073366247  C 15.25060188225 38.0368423846685  15.4038082731451 38.3730601121906  15.43007222587 38.780060519191  C 15.4563361785949 39.1870609261914  15.3337710658788 39.5675178283874  15.0623768877216 39.9214312257791  C 14.7909827095645 40.2753446231707  14.392646093237 40.4788448266709  13.8673670387393 40.5319318362797  C 14.0074414532721 40.7973668843234  14.2613263296126 41.1910955389216  14.629021667761 41.7131178000743  C 14.9967170059094 42.235140061227  15.2418472313417 42.7129231477058  15.3644123440578 43.1464670595105  C 15.4869774567739 43.5800109713153  15.548260013132 44.2037833342181  15.548260013132 45.0177841482189  C 16.3536878966951 44.5930880713489  16.4149704530532 43.7790872573481  15.7321076822062 42.5757817062165  C 15.6620704749398 42.4342163472598  15.5701466404027 42.2926509883032  15.4563361785949 42.1510856293465  C 15.3425257167871 42.0095202703898  15.2593565331582 41.9033462511723  15.2068286277085 41.832563571694  C 15.1543007222587 41.7617808922157  15.1367914204421 41.7086938826069  15.1543007222587 41.6733025428678  C 15.2068286277085 41.5848241935199  15.3206390895163 41.5007697616393  15.4957321076822 41.4211392472262  C 15.6708251258481 41.3415087328131  15.845918144014 41.3636283201501  16.0210111621799 41.4874980092371  C 16.8264390457431 42.4076728424555  18.27971109652 42.7261949001079  20.3808273145108 42.4430641821946  C 22.7095644561173 42.1776291341509  24.2591376668855 41.407867494824  25.0295469468155 40.133779264214  C 25.4322608885971 39.4613438091699  25.7299190194791 39.1959087611262  25.9225213394616 39.3374741200828  C 26.1326329612607 39.4436481393003  26.2201794703436 39.9037355559095  26.1851608667104 40.7177363699103  C 26.1676515648938 41.1601281166499  25.9662945940031 41.9741289306507  25.5810899540381 43.1597388119127  C 25.4235062376888 43.5667392189131  25.370978332239 43.8985330289678  25.4235062376888 44.1551202420768  C 25.4760341431385 44.4117074551857  25.6861457649376 44.548848896675  26.053841103086 44.5665445665446  C 26.1063690085358 44.2303268390225  26.2333114467061 43.5490435490435  26.4346684175968 42.5226946966077  C 26.6360253884876 41.4963458441719  26.7542131757496 40.7000407000407  26.7892317793828 40.133779264214  C 26.824250383016 39.7621701969528  26.7673451521121 39.1118543292456  26.618516086671 38.1828316610925  C 26.46968702123 37.2538089929394  26.4040271394178 36.3955690042647  26.4215364412344 35.6081116950682  C 26.439045743051 34.8206543858718  26.6404027139418 34.196882022969  27.0256073539068 33.7367946063598  C 27.2882468811556 33.4182725487073  27.7347340774787 33.2590115198811  28.3650689428759 33.2590115198811  C 28.3825782446925 32.6042717347065  28.6846137010287 32.1353364831626  29.2711753118844 31.8522057652492  C 29.8577369227402 31.5690750473359  30.4924491135916 31.4761727805206  31.1753118844386 31.5734989648033  Z M 16.1785948785292 10.2988798640973  C 16.231122783979 10.2988798640973  16.2573867367039 10.2723363592929  16.2573867367039 10.2192493496841  C 16.3099146421536 9.91842296190123  16.2880280148829 9.65298791385747  16.1917268548917 9.42294420555291  C 16.0954256949004 9.19290049724833  15.994747209455 9.06018297322645  15.8896913985555 9.02479163348728  C 15.7321076822062 8.98940029374812  15.6533158240315 9.05133513829166  15.6533158240315 9.2105961671179  C 15.6883344276647 9.29907451646582  15.7321076822062 9.35216152607457  15.7846355876559 9.36985719594415  C 15.9597286058219 9.36985719594415  16.0210111621799 9.50257471996602  15.9684832567301 9.76800976800978  C 15.9159553512804 10.1219231654014  15.9859925585467 10.2988798640973  16.1785948785292 10.2988798640973  Z M 27.1700590938936 15.9791898922334  C 27.2663602538849 15.8199288634071  27.2970015320639 15.6429721647113  27.2619829284307 15.4483197961459  C 27.2269643247975 15.3067544371892  27.1700590938936 15.2050043354391  27.091267235719 15.1430694908956  C 27.0124753775443 15.081134646352  26.8986649157365 15.0368954716781  26.7498358502955 15.0103519668737  C 26.6010067848545 14.9838084620693  26.4740643466842 14.935145369928  26.3690085357846 14.8643626904496  C 26.2814620267017 14.8112756808409  26.1982928430729 14.7404930013626  26.1195009848982 14.6520146520147  C 26.0407091267236 14.5635363026667  25.9794265703655 14.4927536231884  25.935653315824 14.4396666135797  C 25.8918800612826 14.3865796039709  25.8437294812869 14.3290686768948  25.7912015758372 14.2671338323512  C 25.7386736703874 14.2051989878077  25.7036550667542 14.1698076480685  25.6861457649376 14.1609598131337  C 25.668636463121 14.1521119781989  25.6336178594879 14.1653837306011  25.5810899540381 14.2007750703403  C 25.3359597286058 14.4839057882536  25.3972422849639 14.868786607917  25.7649376231123 15.3554175293306  C 26.1326329612607 15.8420484507441  26.4740643466842 16.12075525119  26.7892317793828 16.1915379306684  C 26.9468154957321 16.2092336005379  27.0737579339024 16.1384509210596  27.1700590938936 15.9791898922334  Z M 22.5344714379514 9.87418378722727  C 22.5694900415846 9.8387924474881  22.5869993434012 9.81224894268372  22.5869993434012 9.79455327281414  C 22.5869993434012 9.59990090424873  22.5432260888597 9.4273681230203  22.4556795797768 9.27695492912885  C 22.3681330706938 9.12654173523738  22.2718319107026 9.01594379855248  22.166776099803 8.94516111907416  C 22.0617202889035 8.87437843959583  21.9829284307288 8.84783493479145  21.9304005252791 8.86553060466105  C 21.8253447143795 8.86553060466105  21.7553075071132 8.88322627453061  21.72028890348 8.91861761426979  C 21.6852702998468 8.95400895400896  21.6852702998468 8.98940029374812  21.72028890348 9.02479163348728  C 21.7553075071132 9.06018297322645  21.7990807616546 9.08672647803083  21.8516086671044 9.10442214790041  C 22.0967388925367 9.17520482737874  22.254322608886 9.44948771035727  22.3243598161523 9.92727079683601  C 22.3243598161523 9.98035780644476  22.3943970234187 9.96266213657518  22.5344714379514 9.87418378722727  Z M 23.768877216021 3.79572118702553  C 23.8914423287371 3.76032984728636  23.9702341869118 3.69839500274283  24.005252790545 3.60991665339492  C 24.005252790545 3.57452531365574  23.9833661632742 3.53028613898179  23.9395929087328 3.47719912937305  C 23.8958196541913 3.42411211976429  23.8170277960166 3.36217727522074  23.7032173342088 3.29139459574242  C 23.589406872401 3.22061191626409  23.5062376887722 3.16752490665534  23.4537097833224 3.13213356691618  C 23.1910702560735 2.86669851887243  22.9809586342745 2.73398099485055  22.8233749179252 2.73398099485055  C 22.6657912015758 2.75167666472014  22.5651127161304 2.81803542673107  22.521339461589 2.93305728088338  C 22.4775662070475 3.04807913503565  22.4688115561392 3.16310098918794  22.4950755088641 3.27812284334023  C 22.521339461589 3.39314469749252  22.5169621361348 3.50374263417741  22.4819435325016 3.60991665339492  C 22.4644342306851 3.68069933287325  22.4119063252353 3.77360159968855  22.3243598161523 3.88862345384085  C 22.2368133070694 4.00364530799312  22.1842854016196 4.08327582240625  22.166776099803 4.12751499708021  C 22.1492667979864 4.17175417175417  22.1755307507113 4.24696076869989  22.2455679579777 4.3531347879174  C 22.315605165244 4.40622179752614  22.3856423725104 4.40622179752614  22.4556795797768 4.3531347879174  C 22.5257167870431 4.30004777830865  22.6220179470344 4.22041726389553  22.7445830597505 4.11424324467802  C 22.8671481724666 4.00806922546053  22.9984679360911 3.92843871104741  23.1385423506238 3.87535170143866  C 23.1560516524404 3.85765603156908  23.234843510615 3.84880819663428  23.3749179251477 3.84880819663428  C 23.5149923396805 3.84880819663428  23.6463121033049 3.8311125267647  23.768877216021 3.79572118702553  Z M 38.4110308601445 38.9525933004194  C 38.6474064346684 39.0853108244413  38.7918581746553 39.1693652563218  38.8443860801051 39.2047565960609  C 39.1945721164369 39.4171046344959  39.465966294594 39.6338765903983  39.6585686145765 39.8550724637681  C 39.851170934559 40.0762683371379  39.9562267454585 40.2886163755729  39.9737360472751 40.4921165790731  C 39.9912453490917 40.6956167825733  39.969358721821 40.8946930686061  39.9080761654629 41.0893454371715  C 39.8467936091049 41.2839978057369  39.7110965200263 41.4786501743023  39.5009848982272 41.6733025428678  C 39.2908732764281 41.8679549114332  39.0851389800832 42.0404876926616  38.8837820091924 42.1909008865531  C 38.6824250383016 42.3413140804445  38.4197855110527 42.5049990267381  38.0958634274458 42.681955725434  C 37.7719413438389 42.8589124241298  37.4961698402276 43.0049017005539  37.268548916612 43.1199235547062  C 37.0409279929963 43.2349454088585  36.7607791639308 43.3720868503477  36.4281024294156 43.531347879174  C 36.0954256949004 43.6906089080002  35.8590501203765 43.8056307621525  35.7189757058437 43.8764134416308  C 35.0536222368133 44.2126311691529  34.3050995841541 44.7081099255012  33.473407747866 45.3628497106758  C 32.641715911578 46.0175894958504  31.9807397680018 46.583850931677  31.4904793171372 47.0616340181558  C 31.1928211862552 47.3447647360691  30.5975049244911 47.5172975172975  29.7045305318451 47.5792323618411  C 28.811556139199 47.6411672063846  28.0323922083607 47.5128735998301  27.3670387393303 47.1943515421776  C 27.0518713066317 47.0350905133514  26.7936091048369 46.8271663923838  26.5922521339462 46.5705791792748  C 26.3908951630554 46.3139919661659  26.2464434230685 46.0883721753287  26.1588969139856 45.8937198067633  C 26.0713504049026 45.6990674381979  25.8787480849201 45.5265346569694  25.5810899540381 45.376121463078  C 25.2834318231561 45.2257082691865  24.8719632304662 45.141653837306  24.3466841759685 45.1239581674364  C 23.5762748960385 45.1062624975668  22.4381702779602 45.097414662632  20.9323703217334 45.097414662632  C 20.5996935872182 45.097414662632  20.1006784854454 45.1106864150343  19.435325016415 45.1372299198386  C 18.7699715473846 45.163773424643  18.2622017947034 45.18589301198  17.9120157583716 45.2035886818496  C 17.1416064784417 45.2212843517191  16.4456117312322 45.354001875741  15.8240315167433 45.6017412539152  C 15.2024513022543 45.8494806320893  14.7340774786605 46.1149156801331  14.4189100459619 46.3980463980464  C 14.1037426132633 46.6811771159597  13.7229152987525 46.9333404116013  13.2764281024294 47.1545362849711  C 12.8299409061064 47.3757321583409  12.3615670825126 47.477482260091  11.8713066316481 47.4597865902214  C 11.363536878967 47.4420909203518  10.3917706281462 47.1678080373732  8.95600787918582 46.6369379412858  C 7.52024513022543 46.1060678451983  6.24206609761436 45.7256109430023  5.1214707813526 45.4955672346977  C 4.78879404683738 45.4247845552193  4.34230685051433 45.3407301233388  3.78200919238346 45.2434039390561  C 3.22171153425258 45.1460777547734  2.78397898883782 45.0664472403603  2.4688115561392 45.0045123958167  C 2.15364412344057 44.9425775512732  1.80783541256292 44.8585231193927  1.43138542350624 44.7523491001752  C 1.05493543444955 44.6461750809577  0.761654629021663 44.5178814744032  0.551543007222591 44.3674682805118  C 0.341431385423505 44.2170550866203  0.192602319982484 44.0445223053919  0.105055810899543 43.8498699368265  C -0.0700372072663669 43.4428695298261  -0.00875465090830119 42.8544885066624  0.28890347997374 42.0847268673356  C 0.586561610855767 41.3149652280087  0.744145327205075 40.8327582240626  0.761654629021663 40.6381058554972  C 0.779163930838251 40.3549751375838  0.744145327205075 40.0010617401922  0.656598818122134 39.5763656633222  C 0.569052309039179 39.1516695864522  0.481505799956224 38.7756366017236  0.393959290873283 38.4482667091363  C 0.306412781790328 38.120896816549  0.267016852702994 37.7979508414291  0.275771503611296 37.4794287837766  C 0.284526154519583 37.1609067261241  0.376449989056681 36.9220151828847  0.551543007222591 36.7627541540585  C 0.796673232654854 36.5504061156235  1.29568833442767 36.4265364265364  2.04858831254104 36.3911450867973  C 2.8014882906544 36.3557537470581  3.32676734515211 36.2495797278406  3.62442547603415 36.0726230291448  C 4.14970453053185 35.7541009714923  4.51739986868023 35.4444267487746  4.72751149047932 35.1436003609917  C 4.9376231122784 34.8427739732088  5.04267892317793 34.3915343915344  5.04267892317793 33.7898816159686  C 5.41037426132633 35.0816655164481  5.13022543226089 36.019536019536  4.20223243598161 36.6034931252323  C 3.64193477785074 36.9574065226239  2.91529875246225 37.0901240466458  2.02232435981615 37.0016456972979  C 1.42700809805208 36.9485586876891  1.0505581089954 37.037037037037  0.892974392646096 37.2670807453416  C 0.665353469030421 37.5325157933854  0.709126723571899 38.0368423846685  1.02429415627051 38.780060519191  C 1.0593127599037 38.8862345384084  1.12934996717006 39.0454955672347  1.2344057780696 39.2578436056697  C 1.33946158896914 39.4701916441047  1.41387612168965 39.6294526729309  1.45764937623112 39.7356266921484  C 1.50142263077259 39.8418007113659  1.54081855985993 39.9922139052574  1.57583716349311 40.1868662738228  C 1.61085576712628 40.3815186423882  1.61961041803458 40.5761710109536  1.60210111621799 40.770823379519  C 1.60210111621799 41.0362584275628  1.45327205077697 41.4698023393676  1.15561391989495 42.0714551149334  C 0.857955789012919 42.6731078904992  0.735390676296788 43.0978039673692  0.787918581746553 43.3455433455433  C 0.840446487196317 43.6463697333263  1.16436857080323 43.8764134416308  1.7596848325673 44.0356744704571  C 2.10987086889911 44.1418484896746  2.84963887065004 44.3055334359682  3.9789888378201 44.526729309338  C 5.10833880499015 44.7479251827078  5.9794265703655 44.929305798871  6.59225213394616 45.0708711578277  C 7.01247537754432 45.1770451770452  7.66031954475815 45.3716975456106  8.53578463558766 45.6548282635239  C 9.41124972641717 45.9379589814372  10.1335084263515 46.1414591849374  10.7025607353907 46.2653288740245  C 11.2716130444299 46.3891985631116  11.7574961698402 46.4245899028508  12.1602101116218 46.371502893242  C 12.9131100897352 46.2653288740245  13.4777850733202 46.0175894958504  13.8542350623769 45.6282847587195  C 14.2306850514336 45.2389800215887  14.4320420223244 44.8142839447187  14.4583059750492 44.3541965281096  C 14.4845699277741 43.8941091115004  14.4189100459619 43.3765107678151  14.2613263296126 42.8014014970537  C 14.1037426132633 42.2262922262922  13.9374042460057 41.7662048096831  13.7623112278398 41.4211392472262  C 13.5872182096739 41.0760736847693  13.412125191508 40.7531277096494  13.2370321733421 40.4523013218665  C 11.1184066535347 37.0901240466458  9.63887065003283 34.9489479924263  8.79842416283651 34.0287731592079  C 7.60779163930839 32.7192935888588  6.61851608667104 32.3653801914672  5.8305975049245 32.967032967033  C 5.637995184942 33.1262939958592  5.50667542131758 32.9935764718373  5.43663821405121 32.5688803949674  C 5.38411030860145 32.285749677054  5.36660100678486 31.9495319495319  5.38411030860145 31.5602272124011  C 5.40161961041804 31.0470527861832  5.48916611950099 30.5869653695741  5.6467498358503 30.1799649625737  C 5.80433355219961 29.7729645555733  6.01444517399868 29.357116313638  6.27708470124753 28.9324202367681  C 6.53972422849638 28.5077241598981  6.73232654847888 28.1361150926368  6.85489166119501 27.8175930349843  C 6.99496607572773 27.4459839677231  7.22696432479755 26.8089398524181  7.55088640840447 25.9064606890694  C 7.87480849201138 25.0039815257207  8.13307069380609 24.3138504008069  8.32567301378857 23.8360673143282  C 8.51827533377107 23.3582842278495  8.78091486101992 22.8185662968272  9.11359159553513 22.2169135212613  C 9.44626833005034 21.6152607456955  9.78769971547385 21.1374776592168  10.1378857518056 20.7835642618251  C 12.0639089516306 18.2530834704748  13.1494856642591 16.5277556581904  13.3946158896914 15.6075808249721  C 13.1845042678923 13.6256657995788  13.0444298533596 10.8828369697935  12.9743926460932 7.37909433561607  C 12.9393740424601 5.78648404735361  13.1494856642591 4.44603705473271  13.6047275114905 3.35775335775335  C 14.0599693587218 2.26946966077401  14.9879623550011 1.3448709100883  16.3887065003283 0.583957105696236  C 17.0715692711753 0.212348038434996  17.982052965638 0.0265435048043727  19.1201575837163 0.0265435048043727  C 20.0481505799956 0.00884783493479091  20.9761435762749 0.128293606554472  21.9041365725542 0.384880819663429  C 22.8321295688335 0.64146803277238  23.6112934996717 1.00865318256622  24.2416283650689 1.48643626904497  C 25.2396585686146 2.22965440356745  26.0407091267236 3.30466634814461  26.6447800393959 4.71147210277645  C 27.2488509520683 6.11827785740829  27.507113153863 7.42333351029004  27.41956664478 8.62663906142167  C 27.3320201356971 10.307727699032  27.5946596629459 12.2011643750774  28.2074852265266 14.3069490895578  C 28.8028014882907 16.3065597848206  29.9671700590939 18.2353878006052  31.7005909389363 20.0934331369114  C 32.6636025388487 21.1374776592168  33.5346903042241 22.5796747535878  34.3138542350624 24.4200244200244  C 35.0930181659006 26.260374086461  35.6139198949442 27.9503105590062  35.8765594221931 29.4898338376599  C 36.0166338367258 30.3569216612695  36.0604070912672 31.1045637132594  36.0078791858175 31.7327599936296  C 35.9553512803677 32.3609562739998  35.8502954694682 32.8520111128807  35.6927117531188 33.2059245102723  C 35.5351280367695 33.559837907664  35.3600350186036 33.7544902762294  35.1674326986212 33.7898816159686  C 34.9923396804552 33.8252729557077  34.7866053841103 33.9933818194688  34.5502298095863 34.2942082072517  C 34.3138542350624 34.5950345950346  34.0774786605384 34.9091327352197  33.8411030860144 35.236502627807  C 33.6047275114905 35.5638725203943  33.2501641497045 35.8602749907098  32.7774130006566 36.1257100387535  C 32.3046618516087 36.3911450867973  31.7706281462027 36.5150147758843  31.1753118844386 36.4973191060148  C 30.86014445174 36.4796234361452  30.5843729481287 36.4353842614712  30.3479973736047 36.3646015819929  C 30.1116217990808 36.2938189025145  29.9146421536441 36.1743731308949  29.7570584372948 36.0062642671338  C 29.5994747209455 35.8381554033728  29.4812869336835 35.7010139618835  29.4024950755089 35.594839942666  C 29.3237032173342 35.4886659234485  29.2230247318888 35.3072853072853  29.1004596191727 35.0506980941764  C 28.9778945064566 34.7941108810674  28.8991026482819 34.621578099839  28.8640840446487 34.5330997504911  C 28.4788794046837 33.8783599653165  28.1199387174436 33.6129249172727  27.7872619829284 33.7367946063598  C 27.4545852484132 33.8606642954469  27.209455022981 34.2942082072517  27.0518713066317 35.0374263417742  C 26.8942875902823 35.7806444762967  26.9555701466404 36.6388844649714  27.2357189757059 37.6121463077985  C 27.5859050120376 38.8508431986693  27.5946596629459 40.5761710109536  27.2619829284307 42.7881297446515  C 27.0868899102648 43.9383482861744  27.2444736266141 44.8275556971209  27.7347340774787 45.4557519774911  C 28.2249945283432 46.0839482578613  28.8640840446487 46.3759268107094  29.6520026263953 46.3316876360355  C 30.4399212081418 46.2874484613615  31.1840665353469 45.9733503211764  31.8844386080105 45.3893932154802  C 32.9174874151893 44.5223053918706  33.7010286714817 43.933924368707  34.2350623768877 43.6242501459893  C 34.7690960822937 43.3145759232716  35.6752024513023 42.9385429385429  36.9533814839133 42.4961511918034  C 37.8813744801926 42.1776291341509  38.5554826001313 41.854683159031  38.9757058437295 41.5273132664437  C 39.3959290873277 41.1999433738564  39.5578901291311 40.8946930686061  39.4615889691399 40.6115623506928  C 39.3652878091486 40.3284316327795  39.1464215364412 40.0762683371379  38.8049901510177 39.8550724637681  C 38.4635587655942 39.6338765903983  38.012694243817 39.4259524694307  37.4523965856861 39.2313001008653  C 36.8745896257387 39.0366477322999  36.4412344057781 38.6119516554299  36.1523309258043 37.9572118702553  C 35.8634274458306 37.3024720850808  35.7321076822062 36.6610040523084  35.7583716349311 36.0328077719382  C 35.7846355876559 35.404611491568  35.9203326767345 34.9843393321654  36.1654629021668 34.7719912937304  C 36.1829722039834 35.3205570596875  36.2530094112497 35.8204597335032  36.3755745239659 36.2716993151776  C 36.498139636682 36.7229388968519  36.6250820748523 37.081276211711  36.7564018384767 37.3467112597547  C 36.8877216021011 37.6121463077985  37.0671919457212 37.86430960344  37.2948128693368 38.1032011466794  C 37.5224337929525 38.3420926899188  37.7062814620267 38.5102015536798  37.8463558765594 38.6075277379625  C 37.9864302910921 38.7048539222452  38.1746552856205 38.8198757763975  38.4110308601445 38.9525933004194  Z " fill-rule="nonzero" fill="#1296db" stroke="none" transform="matrix(1 0 0 1 96 59 )" />
  </g>
</svg>