<?xml version="1.0" encoding="utf-8"?>
<svg version="1.1" xmlns:xlink="http://www.w3.org/1999/xlink" width="20px" height="19px" xmlns="http://www.w3.org/2000/svg">
  <g transform="matrix(1 0 0 1 -43 -974 )">
    <path d="M 1.41793690180788 15  L 1.41793690180788 16.8914956011731  L 12.7614321162708 16.8914956011731  L 12.7614321162708 15  L 1.41793690180788 15  Z M 1.41793690180788 8.44574780058656  L 1.41793690180788 10  L 12.7614321162708 10  L 12.7614321162708 8.44574780058656  L 1.41793690180788 8.44574780058656  Z M 18.4774902516838 16.9442815249267  C 18.6842727165308 16.6979472140765  18.7876639489543 16.3988269794718  18.7876639489543 16.0469208211143  C 18.7876639489543 15.6950146627569  18.6842727165308 15.3958944281521  18.4774902516838 15.1495601173019  C 18.2707077868368 14.9032258064517  18.0196147938083 14.7800586510266  17.7242112725984 14.7800586510266  C 17.4288077513884 14.7800586510266  17.1777147583599 14.9032258064517  16.9709322935129 15.1495601173019  C 16.764149828666 15.3958944281521  16.6607585962425 15.6950146627569  16.6607585962425 16.0469208211143  C 16.6607585962425 16.3988269794718  16.764149828666 16.6979472140765  16.9709322935129 16.9442815249267  C 17.1777147583599 17.190615835777  17.4288077513884 17.3137829912021  17.7242112725984 17.3137829912021  C 18.0196147938083 17.3137829912021  18.2707077868368 17.190615835777  18.4774902516838 16.9442815249267  Z M 1.41793690180788 2  L 1.41793690180788 3.37829912023472  L 12.7614321162708 3.37829912023472  L 12.7614321162708 2  L 1.41793690180788 2  Z M 18.4774902516838 10.1876832844573  C 18.6842727165308 9.94134897360709  18.7876639489543 9.64222873900326  18.7876639489543 9.2903225806449  C 18.7876639489543 8.93841642228745  18.6842727165308 8.63929618768361  18.4774902516838 8.39296187683249  C 18.2707077868368 8.14662756598227  18.0196147938083 8.02346041055716  17.7242112725984 8.02346041055716  C 17.4288077513884 8.02346041055716  17.1777147583599 8.14662756598227  16.9709322935129 8.39296187683249  C 16.764149828666 8.63929618768361  16.6607585962425 8.93841642228745  16.6607585962425 9.2903225806449  C 16.6607585962425 9.64222873900326  16.764149828666 9.94134897360709  16.9709322935129 10.1876832844573  C 17.1777147583599 10.434017595308  17.4288077513884 10.5571847507331  17.7242112725984 10.5571847507331  C 18.0196147938083 10.5571847507331  18.2707077868368 10.434017595308  18.4774902516838 10.1876832844573  Z M 18.4774902516838 3.43108504398788  C 18.6842727165308 3.18475073313766  18.7876639489543 2.88563049853383  18.7876639489543 2.53372434017592  C 18.7876639489543 2.18181818181802  18.6842727165308 1.88269794721418  18.4774902516838 1.63636363636397  C 18.2707077868368 1.3900293255133  18.0196147938083 1.26686217008773  17.7242112725984 1.26686217008773  C 17.4288077513884 1.26686217008773  17.1777147583599 1.3900293255133  16.9709322935129 1.63636363636397  C 16.764149828666 1.88269794721418  16.6607585962425 2.18181818181802  16.6607585962425 2.53372434017592  C 16.6607585962425 2.88563049853383  16.764149828666 3.18475073313766  16.9709322935129 3.43108504398788  C 17.1777147583599 3.677419354839  17.4288077513884 3.80058651026366  17.7242112725984 3.80058651026366  C 18.0196147938083 3.80058651026366  18.2707077868368 3.677419354839  18.4774902516838 3.43108504398788  Z M 0 13.5131964809384  L 19.8511166253102 13.5131964809384  L 19.8511166253102 18.5806451612902  L 0 18.5806451612902  L 0 13.5131964809384  Z M 0 7  L 19.8511166253102 7  L 19.8511166253102 11.8240469208213  L 0 11.8240469208213  L 0 7  Z M 0 0  L 19.8511166253102 0  L 19.8511166253102 5  L 0 5  L 0 0  Z " fill-rule="nonzero" fill="#ffffff" stroke="none" transform="matrix(1 0 0 1 43 974 )" />
  </g>
</svg>