<?xml version="1.0" encoding="utf-8"?>
<svg version="1.1" xmlns:xlink="http://www.w3.org/1999/xlink" width="300px" height="65px" xmlns="http://www.w3.org/2000/svg">
  <defs>
    <mask fill="white" id="clip33">
      <path d="M 0 48  L 0 4.99999999999989  C 0 2.20000000000005  2.19999999999999 0  5 0  L 295 0  C 297.8 0  300 2.20000000000005  300 4.99999999999989  L 300 48  C 300 50.8  297.8 53  295 53  L 52.0000000130343 53  L 43 65  L 31.9999997149057 53  L 5 53  C 2.19999999999999 53  0 50.8  0 48  Z " fill-rule="evenodd" />
    </mask>
  </defs>
  <g transform="matrix(1 0 0 1 -200 -809 )">
    <path d="M 0 48  L 0 4.99999999999989  C 0 2.20000000000005  2.19999999999999 0  5 0  L 295 0  C 297.8 0  300 2.20000000000005  300 4.99999999999989  L 300 48  C 300 50.8  297.8 53  295 53  L 52.0000000130343 53  L 43 65  L 31.9999997149057 53  L 5 53  C 2.19999999999999 53  0 50.8  0 48  Z " fill-rule="nonzero" fill="#000000" stroke="none" transform="matrix(1 0 0 1 200 809 )" />
    <path d="M 0 48  L 0 4.99999999999989  C 0 2.20000000000005  2.19999999999999 0  5 0  L 295 0  C 297.8 0  300 2.20000000000005  300 4.99999999999989  L 300 48  C 300 50.8  297.8 53  295 53  L 52.0000000130343 53  L 43 65  L 31.9999997149057 53  L 5 53  C 2.19999999999999 53  0 50.8  0 48  Z " stroke-width="2" stroke="#797979" fill="none" transform="matrix(1 0 0 1 200 809 )" mask="url(#clip33)" />
  </g>
</svg>