<svg xmlns="http://www.w3.org/2000/svg" width="30" height="30" viewBox="0 0 30 30">
  <g id="组_475" data-name="组 475" transform="translate(-1042 -58)">
    <g id="组_9" data-name="组 9" transform="translate(43 8)" opacity="0">
      <path id="路径_10" data-name="路径 10" d="M0,0H34V34H0Z" transform="translate(999 50)" fill="#ff6868"/>
    </g>
    <g id="组_423" data-name="组 423" transform="translate(40 -0.193)">
      <path id="路径_11" data-name="路径 11" d="M93.9,42.291a10.1,10.1,0,0,0-.678-20.076L91.647,24.62h.81a7.67,7.67,0,0,1,7.67,7.67,7.666,7.666,0,0,1-14.69,3.067L85.278,35c4.868-.032-2.567,0-2.567,0l.055.184a10.144,10.144,0,0,0,8.246,7.106l.222.032V44.4h-4.7a1.224,1.224,0,0,0,0,2.448H98.388a1.224,1.224,0,0,0,0-2.448h-4.7V42.321l.222-.032Z" transform="translate(928.554 42.758)"/>
      <path id="路径_24" data-name="路径 24" d="M1010.778,52l-5.221,8.989,3.858,2.223L1014.6,54.2Z" transform="translate(6.37 8)" fill="#b9d888"/>
      <path id="路径_25" data-name="路径 25" d="M1005.336,58.75l-.779,1.292,1.235,2.413,2.641-.19.76-1.292Z" transform="translate(5.85 11.512)" fill="#b9d888"/>
      <rect id="矩形_46" data-name="矩形 46" width="15" height="3" rx="1.5" transform="translate(1005 75.193)" fill="#088af6"/>
    </g>
  </g>
</svg>
