<svg xmlns="http://www.w3.org/2000/svg" width="30" height="30" viewBox="0 0 30 30">
  <g id="组_478" data-name="组 478" transform="translate(-10840 50)">
    <g id="组_472" data-name="组 472" transform="translate(0 -1)">
      <rect id="矩形_49" data-name="矩形 49" width="30" height="30" transform="translate(10840 -49)" fill="#c61616" opacity="0"/>
      <path id="路径_17" data-name="路径 17" d="M70.116,68.4H60.073a1.105,1.105,0,0,1-1.155-1.13l-.016-1.89H56.055A1.105,1.105,0,0,1,54.9,64.246V60.2q-4.227-1.436-3.621-3.025c.606-1.59,2.309-2.083,2.309-3.688a13.239,13.239,0,0,1,.79-4.459,12.972,12.972,0,0,1,2.311-3.388,10.728,10.728,0,0,1,7.6-2.972,11.568,11.568,0,0,1,4.316.773,11.861,11.861,0,0,1,3.647,2.2,9.362,9.362,0,0,1,2.493,3.448,10.843,10.843,0,0,1,.911,4.459,11.864,11.864,0,0,1-1.337,5.588,11.3,11.3,0,0,1-3.185,4.1l.016,3.971a1.16,1.16,0,0,1-.3.832.8.8,0,0,1-.73.357ZM56.276,58.8a.368.368,0,0,1,.225.384v4.382c0,.164.056.219.224.219h3.367a.379.379,0,0,1,.393.383v2.521c0,.164.057.219.225.219h8.611c.056,0,.224,0,.224-.273V62.362a.389.389,0,0,1,.168-.328,9.266,9.266,0,0,0,3.041-3.616,10.836,10.836,0,0,0,1.12-4.765,9.323,9.323,0,0,0-.783-3.78,8.373,8.373,0,0,0-2.131-2.9,9.233,9.233,0,0,0-3.082-1.862,10.513,10.513,0,0,0-3.7-.657,9.69,9.69,0,0,0-3.586.657,8.249,8.249,0,0,0-2.859,1.862,9.512,9.512,0,0,0-1.793,2.9,14.169,14.169,0,0,0-.616,4.435c0,1.37-2.149,2.211-2.008,3.109q.141.9,2.96,1.384Z" transform="translate(10793.797 -87.651)" stroke="#000" stroke-width="0.5"/>
    </g>
    <g id="组_473" data-name="组 473" transform="translate(-33)">
      <rect id="矩形_71" data-name="矩形 71" width="4" height="1" transform="translate(10888.131 -35.63) rotate(-39)" fill="#088af6"/>
      <rect id="矩形_70" data-name="矩形 70" width="4" height="1" transform="translate(10889.212 -35.254) rotate(21)" fill="#b9d888"/>
      <circle id="椭圆_33" data-name="椭圆 33" cx="2" cy="2" r="2" transform="translate(10886 -37)" fill="#b9d888"/>
      <circle id="椭圆_34" data-name="椭圆 34" cx="1.5" cy="1.5" r="1.5" transform="translate(10891 -40)" fill="#b9d888"/>
      <circle id="椭圆_32" data-name="椭圆 32" cx="1.5" cy="1.5" r="1.5" transform="translate(10892 -35)" fill="#088af6"/>
    </g>
  </g>
</svg>
