<svg xmlns="http://www.w3.org/2000/svg" width="30" height="30" viewBox="0 0 30 30">
  <g id="组_479" data-name="组 479" transform="translate(-462 -32.429)">
    <g id="组_466" data-name="组 466">
      <rect id="矩形_60" data-name="矩形 60" width="30" height="30" transform="translate(462 32.429)" fill="#9d2e2e" opacity="0"/>
      <g id="组_459" data-name="组 459" transform="translate(466.623 36.577)">
        <path id="路径_33" data-name="路径 33" d="M39.987,8.96A1.1,1.1,0,0,1,39,7.375,12.941,12.941,0,0,1,50.71.014a1.1,1.1,0,1,1,0,2.2,10.756,10.756,0,0,0-9.734,6.123,1.1,1.1,0,0,1-.992.619ZM50.71,26.243A12.941,12.941,0,0,1,39,18.87a1.1,1.1,0,0,1,1.982-.963,10.754,10.754,0,0,0,9.73,6.134,1.1,1.1,0,0,1,0,2.2ZM61.06,20.212a1.1,1.1,0,0,1-.962-1.65,11,11,0,0,0-.331-11.406,1.1,1.1,0,0,1,1.848-1.2,13.2,13.2,0,0,1,.394,13.7,1.1,1.1,0,0,1-.95.554Z" transform="translate(-37.881 -0.014)"/>
        <path id="路径_34" data-name="路径 34" d="M20.5,3.3Z" transform="translate(-0.49 -0.021)"/>
        <g id="组_462" data-name="组 462" transform="translate(-1)">
          <path id="路径_39" data-name="路径 39" d="M0,0,4.364-.044,4.291,2.034,0,2Z" transform="matrix(0.999, -0.035, 0.035, 0.999, 5.344, 11.939)" fill="#088af6"/>
          <rect id="矩形_62" data-name="矩形 62" width="4" height="2" transform="matrix(-0.469, 0.883, -0.883, -0.469, 18.464, 5.997)" fill="#088af6"/>
          <path id="路径_38" data-name="路径 38" d="M0,0,3.454-.341v2L0,2Z" transform="translate(17.446 17.194) rotate(59)" fill="#088af6"/>
          <g id="椭圆_20" data-name="椭圆 20" transform="translate(-0.623 9.852)" fill="none" stroke="#b9d888" stroke-width="1.5">
            <circle cx="3.5" cy="3.5" r="3.5" stroke="none"/>
            <circle cx="3.5" cy="3.5" r="2.75" fill="none"/>
          </g>
          <g id="路径_37" data-name="路径 37" transform="translate(16.377 18.852)" fill="none">
            <path d="M3.5,0A3.5,3.5,0,1,1,0,3.5,3.5,3.5,0,0,1,3.5,0Z" stroke="none"/>
            <path d="M 3.5 1.5 C 2.397200107574463 1.5 1.5 2.397200107574463 1.5 3.5 C 1.5 4.602799892425537 2.397200107574463 5.5 3.5 5.5 C 4.602799892425537 5.5 5.5 4.602799892425537 5.5 3.5 C 5.5 2.397200107574463 4.602799892425537 1.5 3.5 1.5 M 3.5 0 C 5.433000087738037 0 7 1.566999912261963 7 3.5 C 7 5.433000087738037 5.433000087738037 7 3.5 7 C 1.566999912261963 7 0 5.433000087738037 0 3.5 C 0 1.566999912261963 1.566999912261963 0 3.5 0 Z" stroke="none" fill="#b9d888"/>
          </g>
          <g id="椭圆_23" data-name="椭圆 23" transform="translate(8.377 7.852)" fill="none" stroke="#b9d888" stroke-width="1.5">
            <circle cx="5.5" cy="5.5" r="5.5" stroke="none"/>
            <circle cx="5.5" cy="5.5" r="4.75" fill="none"/>
          </g>
          <g id="路径_101" data-name="路径 101" transform="translate(15.377 -0.148)" fill="none">
            <path d="M3.5,0A3.5,3.5,0,1,1,0,3.5,3.5,3.5,0,0,1,3.5,0Z" stroke="none"/>
            <path d="M 3.5 1.5 C 2.397200107574463 1.5 1.5 2.397200107574463 1.5 3.5 C 1.5 4.602799892425537 2.397200107574463 5.5 3.5 5.5 C 4.602799892425537 5.5 5.5 4.602799892425537 5.5 3.5 C 5.5 2.397200107574463 4.602799892425537 1.5 3.5 1.5 M 3.5 0 C 5.433000087738037 0 7 1.566999912261963 7 3.5 C 7 5.433000087738037 5.433000087738037 7 3.5 7 C 1.566999912261963 7 0 5.433000087738037 0 3.5 C 0 1.566999912261963 1.566999912261963 0 3.5 0 Z" stroke="none" fill="#b9d888"/>
          </g>
        </g>
      </g>
    </g>
  </g>
</svg>
