<svg xmlns="http://www.w3.org/2000/svg" width="30" height="30" viewBox="0 0 30 30">
  <g id="组_474" data-name="组 474" transform="translate(-10730 48.159)">
    <rect id="矩形_64" data-name="矩形 64" width="30" height="30" transform="translate(10730 -48.159)" fill="#ffbfbf" opacity="0"/>
    <path id="路径_32" data-name="路径 32" d="M69.894,128.515A1.081,1.081,0,0,1,70.82,128H85.236a1.15,1.15,0,0,1,.927.515l6.178,11.326a1.09,1.09,0,0,1,0,.978l-6.178,11.326a1.081,1.081,0,0,1-.927.515H70.82a1.15,1.15,0,0,1-.927-.515l-6.178-11.326a1.091,1.091,0,0,1,0-.978Zm1.544,1.544-5.612,10.3,5.612,10.3h13.18l5.612-10.3-5.612-10.3Z" transform="translate(10668.634 -171.527)"/>
    <g id="组_471" data-name="组 471">
      <g id="组_468" data-name="组 468">
        <rect id="矩形_65" data-name="矩形 65" width="9" height="2" rx="1" transform="translate(10740 -38.159)" fill="#b9d888"/>
        <circle id="椭圆_24" data-name="椭圆 24" cx="1" cy="1" r="1" transform="translate(10750 -38.159)" fill="#b9d888"/>
      </g>
      <g id="组_470" data-name="组 470" transform="translate(1 12)">
        <rect id="矩形_65-2" data-name="矩形 65" width="9" height="2" rx="1" transform="translate(10744 -38.159)" fill="#b9d888"/>
        <circle id="椭圆_24-2" data-name="椭圆 24" cx="1" cy="1" r="1" transform="translate(10740 -38.159)" fill="#b9d888"/>
      </g>
      <g id="组_469" data-name="组 469" transform="translate(0 6)">
        <rect id="矩形_65-3" data-name="矩形 65" width="11" height="2" rx="1" transform="translate(10741 -38.159)" fill="#088af6"/>
        <circle id="椭圆_24-3" data-name="椭圆 24" cx="1" cy="1" r="1" transform="translate(10754 -38.159)" fill="#088af6"/>
        <circle id="椭圆_25" data-name="椭圆 25" cx="1" cy="1" r="1" transform="translate(10737 -38.159)" fill="#088af6"/>
      </g>
    </g>
  </g>
</svg>
