<svg xmlns="http://www.w3.org/2000/svg" width="30" height="30" viewBox="0 0 30 30">
  <g id="组_476" data-name="组 476" transform="translate(-801 -21)">
    <rect id="矩形_4" data-name="矩形 4" width="30" height="30" transform="translate(801 21)" fill="#b60000" opacity="0"/>
    <g id="组_5" data-name="组 5" transform="translate(568.728 -70.492)">
      <path id="路径_3" data-name="路径 3" d="M394.2,667.694a13.787,13.787,0,0,0-1.618,1.743l-.309.5h8.707l-.394-.5a10.971,10.971,0,0,0-1.618-1.743l-.084-.125h-4.614l-.07.125Z" transform="translate(-147.535 -554.661)" fill="#088af6"/>
      <path id="路径_4" data-name="路径 4" d="M387.755,275.863l.084.125h5.3l.084-.125a10.286,10.286,0,0,0,1.463-1.7l.309-.442h-9.031l.31.442A9.758,9.758,0,0,0,387.755,275.863Z" transform="translate(-141.458 -172.136)" fill="#088af6"/>
      <path id="路径_5" data-name="路径 5" d="M247.744,541.582l.408-.249-.619-.328c-.38-.192-.731-.408-1.111-.623-.155-.091-.324-.193-.492-.283l-.253-.136-.225.181c-3.77,2.615-5.781,5.763-5.992,9.351V551h2.954v-.475C242.216,547.062,243.96,544.141,247.744,541.582Z" transform="translate(-0.18 -430.723)" fill="#b9d888"/>
      <path id="路径_6" data-name="路径 6" d="M249.463,111.007c-5.556-2.887-7.975-6.306-7.441-10.438l.07-.521-2.757-.011-.014.1a8.891,8.891,0,0,0-.042,1.336v.113c-.056,4.438,2.869,8.253,8.693,11.344,5.472,2.887,8.018,6.283,7.764,10.4v.487h2.954v-1.506c-.2-4.427-3.306-8.23-9.227-11.31Z" transform="translate(0 -3.443)"/>
      <path id="路径_7" data-name="路径 7" d="M357.583,157.7l.07.249h10.114l.07-.249a7.048,7.048,0,0,0,.352-1.811v-.317H357.218v.328a7.939,7.939,0,0,0,.366,1.8Z" transform="translate(-113.733 -57.378)" fill="#b9d888"/>
      <path id="路径_8" data-name="路径 8" d="M372.452,116.508l-.084-.2h-9.762l-.141.17-.014.023a7.222,7.222,0,0,0-.506,1.811v.374H373l-.07-.362a8.767,8.767,0,0,0-.478-1.811Zm4.571-19.914-.014-.1-3.052.023.07.521c.492,3.544-1.2,6.544-5.148,9.159l-.394.26.464.249c.464.249.928.521,1.378.792l.338.2.239.192.239-.192c3.91-2.706,5.894-5.944,5.894-9.623.028-.849-.014-1.472-.014-1.483Z" transform="translate(-118.291 0)" fill="#b9d888"/>
    </g>
  </g>
</svg>
