<?xml version="1.0" encoding="utf-8"?>
<svg version="1.1" xmlns:xlink="http://www.w3.org/1999/xlink" width="135px" height="122px" xmlns="http://www.w3.org/2000/svg">
  <g transform="matrix(1 0 0 1 -222 -48 )">
    <path d="M 44.3176427998047 69  L 70.7390714667969 27  L 102 27  L 102 40.2747857333984  C 104.0105 42.2319285332031  105.967642933594 42.2319285332031  107.924785733398 40.2747857333984  L 132.389071466797 24.6176427998047  C 134.346214266602 23.6390713330078  134.346214266602 21.6819285332031  133.367642799805 19.7247857333984  L 132.389071466797 18.7462142666016  L 108.903357200195 2.11050000000001  C 106.946214400391 0.153357200195319  104.989071466797 0.153357200195319  103 2.11050000000001  L 103 14  L 64.8676427998047 14  L 38.4462142666016 58  L 7.13192853320312 58  C 3.21764279980468 57.8890714667969  0.281928533203121 60.8247857333984  0.281928533203121 63.7605  C 0.281928533203121 67.6747857333985  3.21764279980468 69.6319285332031  6.15335720019531 69  L 44.3176427998047 69  Z M 133.367642799805 98.9890714667969  L 108.903357200195 83.3319285332031  C 106.946214400391 81.3747857333985  104.989071466797 81.3747857333985  103 83.3319285332031  L 103 96  L 83.4605 96  L 64.8676427998047 63.7605  L 58.0176427998047 76.4819285332031  C 58.0176427998047 76.4819285332031  75.6319285332031 105.839071333008  77.5890714667969 107  L 103 107  L 103 120.517642799805  C 104.989071333008 122.474785599609  106.946214266602 122.474785599609  108.903357200195 120.517642799805  L 133.367642799805 104.8605  C 135.324785599609 103.881928533203  135.324785599609 101.924785733398  134.346214266602 99.9676427998047  C 134.346214266602 99.9676427998047  134.346214266602 98.9890713330078  133.367642799805 98.9890714667969  Z " fill-rule="nonzero" fill="#08a6b3" stroke="none" transform="matrix(1 0 0 1 222 48 )" />
  </g>
</svg>