<?xml version="1.0" standalone="no"?><!DOCTYPE svg PUBLIC "-//W3C//DTD SVG 1.1//EN" "http://www.w3.org/Graphics/SVG/1.1/DTD/svg11.dtd"><svg t="1698491674711" class="icon" viewBox="0 0 1024 1024" version="1.1" xmlns="http://www.w3.org/2000/svg" p-id="34764" xmlns:xlink="http://www.w3.org/1999/xlink" width="200" height="200"><path d="M 772.5 927.1 H 244.4 l -171.6 -510 L 506.7 95.9 l 444 331.8 l -178.2 499.4 Z m -504.9 -32.3 h 482.1 l 162.6 -455.6 L 506.6 136 L 110.9 428.9 l 156.7 465.9 Z" fill="#00a3af" p-id="34765"></path><path d="M 731.4 877.8 l -413.2 -61.4 l -80 -345.8 l 267.3 -267.4 l 310.4 255.7 l -84.5 418.9 Z m -386.6 -90.1 l 361.1 53.7 l 74.7 -369.8 l -272.9 -224.8 l -234 234 l 71.1 306.9 Z" fill="#00a3af" p-id="34766"></path><path d="M 397.9 713.3 l -18.8 -196 l 123.7 -160.8 L 716 486.9 L 602.5 689.3 l -204.6 24 Z m 14.5 -186.4 l 14.5 150.5 l 155.5 -18.2 l 90.2 -160.9 l -162 -99.1 l -98.2 127.7 Z" fill="#00a3af" p-id="34767"></path><path d="M 522.8 579.3 L 86.9 438.4 l 9.9 -30.7 L 490.5 535 V 116 h 32.3 Z" fill="#00a3af" p-id="34768"></path><path d="M 748.1 920.4 L 480.3 548 L 927 417.9 l 9.1 31 l -403 117.3 l 241.2 335.3 Z" fill="#00a3af" p-id="34769"></path><path d="M 243.017 901.536 L 493.682 547.72 l 26.356 18.672 L 269.374 920.21 Z" fill="#00a3af" p-id="34770"></path><path d="M 273.1 479.5 m -39.6 0 a 39.6 39.6 0 1 0 79.2 0 a 39.6 39.6 0 1 0 -79.2 0 Z" fill="#ffffff" p-id="34771"></path><path d="M 273.1 535.2 c -30.7 0 -55.7 -25 -55.7 -55.7 s 25 -55.7 55.7 -55.7 s 55.7 25 55.7 55.7 s -25 55.7 -55.7 55.7 Z m 0 -79.2 c -12.9 0 -23.4 10.5 -23.4 23.4 s 10.5 23.4 23.4 23.4 s 23.4 -10.5 23.4 -23.4 s -10.4 -23.4 -23.4 -23.4 Z" fill="#00a2ae" p-id="34772"></path><path d="M 403.9 522.9 m -39.6 0 a 39.6 39.6 0 1 0 79.2 0 a 39.6 39.6 0 1 0 -79.2 0 Z" fill="#ffffff" p-id="34773"></path><path d="M 403.9 578.6 c -30.7 0 -55.7 -25 -55.7 -55.7 s 25 -55.7 55.7 -55.7 s 55.7 25 55.7 55.7 s -25 55.7 -55.7 55.7 Z m 0 -79.1 c -12.9 0 -23.4 10.5 -23.4 23.4 s 10.5 23.4 23.4 23.4 s 23.4 -10.5 23.4 -23.4 s -10.5 -23.4 -23.4 -23.4 Z" fill="#00a2ae" p-id="34774"></path><path d="M 507.8 387.9 m -39.6 0 a 39.6 39.6 0 1 0 79.2 0 a 39.6 39.6 0 1 0 -79.2 0 Z" fill="#ffffff" p-id="34775"></path><path d="M 507.8 443.6 c -30.7 0 -55.7 -25 -55.7 -55.7 s 25 -55.7 55.7 -55.7 s 55.7 25 55.7 55.7 s -25 55.7 -55.7 55.7 Z m 0 -79.1 c -12.9 0 -23.4 10.5 -23.4 23.4 s 10.5 23.4 23.4 23.4 s 23.4 -10.5 23.4 -23.4 s -10.5 -23.4 -23.4 -23.4 Z" fill="#00a2ae" p-id="34776"></path><path d="M 773.7 469.7 m -39.6 0 a 39.6 39.6 0 1 0 79.2 0 a 39.6 39.6 0 1 0 -79.2 0 Z" fill="#ffffff" p-id="34777"></path><path d="M 773.7 525.4 c -30.7 0 -55.7 -25 -55.7 -55.7 s 25 -55.7 55.7 -55.7 s 55.7 25 55.7 55.7 s -25 55.7 -55.7 55.7 Z m 0 -79.1 c -12.9 0 -23.4 10.5 -23.4 23.4 s 10.5 23.4 23.4 23.4 s 23.4 -10.5 23.4 -23.4 s -10.5 -23.4 -23.4 -23.4 Z" fill="#00a2ae" p-id="34778"></path><path d="M 683.3 495.3 m -39.6 0 a 39.6 39.6 0 1 0 79.2 0 a 39.6 39.6 0 1 0 -79.2 0 Z" fill="#ffffff" p-id="34779"></path><path d="M 683.3 551 c -30.7 0 -55.7 -25 -55.7 -55.7 s 25 -55.7 55.7 -55.7 s 55.7 25 55.7 55.7 c 0.1 30.8 -24.9 55.7 -55.7 55.7 Z m 0 -79.1 c -12.9 0 -23.4 10.5 -23.4 23.4 s 10.5 23.4 23.4 23.4 s 23.4 -10.5 23.4 -23.4 c 0.1 -12.9 -10.4 -23.4 -23.4 -23.4 Z" fill="#00a2ae" p-id="34780"></path><path d="M 588 665.3 m -39.6 0 a 39.6 39.6 0 1 0 79.2 0 a 39.6 39.6 0 1 0 -79.2 0 Z" fill="#ffffff" p-id="34781"></path><path d="M 588 721.1 c -30.7 0 -55.7 -25 -55.7 -55.7 s 25 -55.7 55.7 -55.7 s 55.7 25 55.7 55.7 s -25 55.7 -55.7 55.7 Z m 0 -79.2 c -12.9 0 -23.4 10.5 -23.4 23.4 s 10.5 23.4 23.4 23.4 s 23.4 -10.5 23.4 -23.4 c 0 -12.9 -10.5 -23.4 -23.4 -23.4 Z" fill="#00a2ae" p-id="34782"></path><path d="M 419.5 685.1 m -39.6 0 a 39.6 39.6 0 1 0 79.2 0 a 39.6 39.6 0 1 0 -79.2 0 Z" fill="#ffffff" p-id="34783"></path><path d="M 419.4 740.8 c -30.7 0 -55.7 -25 -55.7 -55.7 s 25 -55.7 55.7 -55.7 s 55.7 25 55.7 55.7 s -24.9 55.7 -55.7 55.7 Z m 0 -79.1 c -12.9 0 -23.4 10.5 -23.4 23.4 s 10.5 23.4 23.4 23.4 s 23.4 -10.5 23.4 -23.4 s -10.4 -23.4 -23.4 -23.4 Z" fill="#00a2ae" p-id="34784"></path><path d="M 343.8 785 m -39.6 0 a 39.6 39.6 0 1 0 79.2 0 a 39.6 39.6 0 1 0 -79.2 0 Z" fill="#ffffff" p-id="34785"></path><path d="M 343.8 840.7 c -30.7 0 -55.7 -25 -55.7 -55.7 s 25 -55.7 55.7 -55.7 s 55.7 25 55.7 55.7 c 0 30.7 -25 55.7 -55.7 55.7 Z m 0 -79.2 c -12.9 0 -23.4 10.5 -23.4 23.4 s 10.5 23.4 23.4 23.4 s 23.4 -10.5 23.4 -23.4 s -10.5 -23.4 -23.4 -23.4 Z" fill="#00a2ae" p-id="34786"></path><path d="M 706.4 824.4 m -39.6 0 a 39.6 39.6 0 1 0 79.2 0 a 39.6 39.6 0 1 0 -79.2 0 Z" fill="#ffffff" p-id="34787"></path><path d="M 706.4 880.2 c -30.7 0 -55.7 -25 -55.7 -55.7 s 25 -55.7 55.7 -55.7 s 55.7 25 55.7 55.7 s -25 55.7 -55.7 55.7 Z m 0 -79.2 c -12.9 0 -23.4 10.5 -23.4 23.4 s 10.5 23.4 23.4 23.4 s 23.4 -10.5 23.4 -23.4 s -10.5 -23.4 -23.4 -23.4 Z" fill="#00a2ae" p-id="34788"></path><path d="M 507.8 244.8 m -39.6 0 a 39.6 39.6 0 1 0 79.2 0 a 39.6 39.6 0 1 0 -79.2 0 Z" fill="#ffffff" p-id="34789"></path><path d="M 507.8 300.5 c -30.7 0 -55.7 -25 -55.7 -55.7 s 25 -55.7 55.7 -55.7 s 55.7 25 55.7 55.7 c 0 30.7 -25 55.7 -55.7 55.7 Z m 0 -79.1 c -12.9 0 -23.4 10.5 -23.4 23.4 s 10.5 23.4 23.4 23.4 s 23.4 -10.5 23.4 -23.4 s -10.5 -23.4 -23.4 -23.4 Z" fill="#00a2ae" p-id="34790"></path></svg>