<?xml version="1.0" encoding="utf-8"?>
<svg version="1.1" xmlns:xlink="http://www.w3.org/1999/xlink" width="158px" height="118px" xmlns="http://www.w3.org/2000/svg">
  <g transform="matrix(1 0 0 1 -568 -47 )">
    <path d="M 155.87265625 56.075  C 157.82265625 54.125  157.82265625 51.2  154.89765625 50.225  L 121.74765625 30.725  C 119.79765625 29.75  116.87265625 30.725  116 33.65  L 116 48  L 83.72265625 48  C 80.79765625 47.3  78.84765625 48.275  77.87265625 50.225  L 45.69765625 105  L 6.69765625 105  C 3.77265625 105.8  0.847656249999996 108.725  0.847656249999996 111.65  C 0.847656249999996 114.575  3.77265625 117.5  6.69765625 117  L 53.49765625 117  L 87.62265625 59  L 117 59  L 117 72.65  C 117.84765625 75.575  120.77265625 76.55  122.72265625 75.575  L 155.87265625 56.075  Z M 0.847656249999996 6.35  C 0.847656249999996 9.275  3.77265625 12.2  6.69765624999999 13  L 33.02265625 13  L 62.27265625 41.45  L 68.12265625 30.725  L 39.84765625 2.45  C 38.87265625 1.475  36.92265625 0.5  35.94765625 1  L 6.69765625 1  C 3.77265625 0.5  0.847656249999996 3.425  0.847656249999996 6.35  Z M 75.92265625 39.5  L 76.89765625 39.5  L 75.92265625 39.5  Z " fill-rule="nonzero" fill="#08a6b3" stroke="none" transform="matrix(1 0 0 1 568 47 )" />
  </g>
</svg>