<?xml version="1.0" encoding="UTF-8" standalone="no"?>
<!DOCTYPE svg PUBLIC "-//W3C//DTD SVG 1.1//EN" "http://www.w3.org/Graphics/SVG/1.1/DTD/svg11.dtd">
<svg xmlns="http://www.w3.org/2000/svg" version="1.1" viewBox="0.00 0.00 692.00 243.00">
<path fill="#ffffff" d="
  M 101.76 31.11
  C 86.63 35.63 77.79 48.96 77.82 64.74
  Q 78.00 156.30 77.86 183.88
  C 77.80 196.49 61.07 200.97 55.79 189.74
  Q 54.49 186.97 54.49 181.05
  Q 54.43 121.90 54.52 62.75
  C 54.56 35.10 75.45 11.71 103.12 7.10
  Q 106.60 6.52 115.06 6.88
  C 141.96 8.04 163.56 28.12 167.94 54.06
  Q 168.89 59.68 168.90 74.00
  Q 168.95 126.32 168.91 178.65
  Q 168.91 186.10 168.45 187.81
  C 165.07 200.46 145.48 197.99 145.48 184.00
  Q 145.47 125.97 145.52 67.94
  Q 145.53 58.49 144.14 53.70
  C 138.95 35.81 119.88 25.69 101.76 31.11
  Z"
/>
<circle fill="#ffffff" cx="111.08" cy="64.19" r="12.74"/>
<path fill="#ffffff" d="
  M 649.05 123.27
  Q 665.11 127.66 681.77 126.61
  Q 682.02 126.59 682.01 126.84
  L 681.72 135.24
  Q 681.71 135.45 681.49 135.46
  C 666.32 135.61 651.67 133.57 637.49 127.95
  Q 637.02 127.77 636.54 127.95
  Q 632.50 129.47 628.48 130.86
  C 617.61 134.61 605.41 135.29 594.00 135.41
  Q 583.00 135.53 572.01 135.06
  C 553.49 134.26 535.63 122.85 528.09 105.72
  A 0.49 0.49 0.0 0 0 527.19 105.73
  C 520.95 120.49 506.53 131.05 491.18 134.15
  Q 485.76 135.24 471.26 135.24
  Q 434.37 135.24 397.50 135.11
  C 387.26 135.08 379.39 132.45 379.39 120.24
  Q 379.39 97.13 379.41 74.08
  A 0.41 0.41 0.0 0 0 379.00 73.67
  L 277.10 73.68
  Q 275.81 73.68 276.18 74.91
  L 276.51 76.04
  A 2.02 2.01 81.7 0 0 278.44 77.48
  L 352.00 77.49
  Q 352.54 77.49 352.51 78.02
  Q 352.23 84.39 346.18 86.23
  Q 345.66 86.39 345.66 86.93
  L 345.68 90.29
  Q 345.68 90.89 346.29 90.89
  L 353.34 90.89
  Q 353.67 90.89 353.67 91.22
  L 353.67 99.55
  Q 353.67 99.76 353.46 99.76
  L 327.26 99.77
  Q 326.69 99.77 326.94 100.28
  Q 330.46 107.54 335.72 113.65
  Q 336.05 114.03 336.48 113.78
  Q 341.29 110.97 343.00 105.70
  A 0.54 0.54 0.0 0 1 343.51 105.33
  L 352.51 105.32
  Q 352.72 105.32 352.69 105.53
  Q 351.25 114.93 343.65 120.53
  Q 343.18 120.88 343.66 121.22
  Q 348.21 124.48 353.41 126.58
  Q 353.67 126.69 353.67 126.97
  L 353.68 134.71
  A 0.23 0.22 5.3 0 1 353.41 134.93
  Q 342.90 132.63 334.92 125.44
  Q 334.53 125.09 334.06 125.30
  L 318.99 132.15
  Q 318.76 132.25 318.76 131.99
  L 318.75 122.80
  Q 318.75 122.49 319.02 122.36
  L 327.27 118.32
  Q 327.83 118.04 327.45 117.55
  Q 321.30 109.40 316.77 100.25
  Q 316.53 99.76 316.00 99.76
  L 282.77 99.77
  Q 280.68 99.77 279.18 101.23
  L 277.82 102.57
  Q 276.34 104.01 278.40 104.00
  Q 297.61 103.92 303.48 104.08
  C 314.33 104.38 312.03 116.13 312.00 123.25
  C 311.98 130.12 309.98 134.78 302.50 134.74
  Q 296.56 134.71 291.06 134.59
  A 0.33 0.32 -90.0 0 1 290.74 134.26
  L 290.74 125.97
  Q 290.74 125.67 291.03 125.67
  L 300.21 125.65
  A 2.86 2.85 -0.2 0 0 303.06 122.79
  L 303.06 116.09
  A 2.97 2.97 0.0 0 0 300.09 113.12
  L 277.74 113.12
  Q 277.27 113.12 277.27 113.60
  C 277.30 122.63 276.73 134.88 264.32 134.95
  Q 264.08 134.95 264.08 134.72
  L 264.07 126.29
  Q 264.07 126.05 264.31 126.03
  Q 268.19 125.78 268.25 121.25
  C 268.35 114.17 267.28 102.96 269.71 97.59
  Q 272.80 90.78 282.26 90.80
  Q 297.51 90.84 312.50 90.88
  Q 312.95 90.88 312.82 90.45
  L 311.76 86.95
  Q 311.60 86.42 311.05 86.42
  Q 293.86 86.43 276.26 86.49
  Q 270.65 86.51 268.49 82.60
  C 266.43 78.86 267.33 70.26 267.31 65.40
  C 267.28 58.12 268.08 52.85 276.51 52.84
  Q 309.50 52.81 342.50 52.84
  C 347.87 52.85 352.45 55.35 352.53 61.23
  Q 352.54 61.76 352.00 61.76
  L 277.93 61.77
  A 1.43 1.41 7.0 0 0 276.55 62.83
  L 276.12 64.48
  Q 275.82 65.61 277.00 65.62
  L 379.00 65.67
  A 0.43 0.42 -0.0 0 0 379.43 65.25
  L 379.37 53.06
  Q 379.37 52.74 379.69 52.74
  L 388.25 52.74
  A 0.26 0.26 0.0 0 1 388.51 53.00
  L 388.51 65.10
  Q 388.51 65.69 389.10 65.69
  L 406.55 65.66
  Q 407.13 65.65 407.13 65.08
  L 407.12 53.06
  Q 407.12 52.74 407.44 52.74
  L 416.00 52.74
  A 0.26 0.26 0.0 0 1 416.26 53.00
  L 416.26 64.98
  Q 416.26 65.69 416.98 65.69
  L 447.45 65.68
  Q 448.07 65.68 448.07 65.05
  L 448.07 52.96
  A 0.22 0.22 0.0 0 1 448.29 52.74
  L 456.99 52.74
  A 0.26 0.25 -0.0 0 1 457.25 52.99
  L 457.25 64.94
  Q 457.25 65.62 457.93 65.62
  L 461.84 65.66
  Q 463.01 65.67 463.01 66.84
  L 463.01 72.57
  Q 463.01 73.66 461.93 73.67
  L 457.77 73.67
  Q 457.26 73.68 457.27 74.19
  Q 457.33 88.68 456.91 103.12
  C 456.63 112.72 449.37 116.57 440.75 116.54
  Q 434.16 116.51 427.57 116.38
  C 415.86 116.13 407.27 114.80 407.14 101.24
  Q 407.01 87.70 407.15 74.13
  Q 407.15 73.68 406.70 73.68
  L 389.03 73.67
  Q 388.53 73.67 388.53 74.17
  Q 388.52 96.24 388.52 118.24
  C 388.52 121.71 388.87 126.21 393.75 126.20
  Q 435.32 126.11 476.89 126.13
  Q 485.96 126.14 490.99 124.81
  C 506.87 120.61 518.62 108.58 521.59 92.11
  Q 521.67 91.67 521.23 91.67
  L 482.84 91.68
  Q 482.50 91.68 482.50 91.34
  L 482.50 82.75
  Q 482.50 82.50 482.75 82.50
  L 522.25 82.50
  A 0.62 0.62 0.0 0 0 522.87 81.88
  L 522.88 64.03
  Q 522.88 63.42 522.28 63.42
  L 484.45 63.42
  Q 484.24 63.42 484.24 63.21
  L 484.24 54.51
  A 0.26 0.25 90.0 0 1 484.49 54.25
  L 570.66 54.25
  Q 570.86 54.25 570.86 54.46
  L 570.87 63.16
  A 0.26 0.25 -90.0 0 1 570.62 63.42
  L 532.50 63.42
  A 0.33 0.33 0.0 0 0 532.17 63.75
  L 532.17 81.96
  Q 532.17 82.50 532.71 82.50
  L 571.97 82.50
  Q 572.31 82.50 572.31 82.84
  L 572.34 91.35
  A 0.32 0.32 0.0 0 1 572.02 91.67
  L 533.51 91.67
  Q 533.04 91.67 533.13 92.14
  Q 533.93 96.46 535.89 100.65
  C 544.89 119.88 561.33 126.82 581.75 127.20
  Q 598.06 127.50 614.25 125.53
  Q 619.73 124.86 625.00 123.26
  Q 625.65 123.06 625.03 122.79
  C 618.76 120.04 611.90 117.95 606.32 113.70
  C 599.50 108.52 600.47 100.33 600.56 92.87
  Q 600.57 92.08 599.78 92.08
  L 593.20 92.10
  Q 592.55 92.10 592.56 91.45
  L 592.67 83.53
  Q 592.68 82.99 593.22 82.99
  L 600.01 82.99
  Q 600.51 82.99 600.51 82.49
  L 600.50 77.88
  Q 600.50 76.50 601.87 76.50
  L 608.13 76.50
  Q 609.51 76.50 609.51 77.88
  L 609.51 82.50
  Q 609.51 82.99 610.00 82.99
  L 664.09 82.99
  Q 664.66 82.99 664.66 82.41
  L 664.63 77.82
  Q 664.62 76.50 665.93 76.50
  L 672.31 76.50
  Q 673.62 76.50 673.62 77.81
  L 673.60 82.54
  Q 673.60 82.99 674.04 82.99
  L 681.74 82.99
  Q 682.00 82.99 682.00 83.24
  L 682.00 91.81
  Q 682.00 92.12 681.69 92.12
  L 674.11 92.10
  A 0.58 0.58 0.0 0 0 673.52 92.72
  Q 674.00 100.48 673.03 105.26
  Q 671.61 112.19 664.56 115.69
  Q 656.80 119.53 649.02 122.80
  Q 648.35 123.08 649.05 123.27
  Z
  M 447.93 101.06
  Q 448.26 87.67 448.01 74.18
  Q 448.00 73.67 447.49 73.67
  L 416.50 73.67
  A 0.23 0.23 0.0 0 0 416.27 73.90
  Q 416.19 87.90 416.42 102.00
  Q 416.50 106.95 421.49 107.01
  Q 434.55 107.16 442.99 106.94
  C 446.86 106.84 447.84 104.67 447.93 101.06
  Z
  M 321.74 86.42
  A 0.34 0.34 0.0 0 0 321.42 86.86
  L 322.61 90.64
  A 0.34 0.34 0.0 0 0 322.94 90.88
  L 336.47 90.87
  A 0.34 0.34 0.0 0 0 336.81 90.53
  L 336.84 86.76
  A 0.34 0.34 0.0 0 0 336.50 86.42
  L 321.74 86.42
  Z
  M 664.63 92.69
  A 0.59 0.59 0.0 0 0 664.04 92.12
  L 610.12 92.12
  Q 609.68 92.12 609.65 92.56
  C 608.89 102.63 609.39 107.33 618.97 111.11
  Q 627.91 114.64 636.72 118.26
  Q 637.14 118.43 637.55 118.26
  Q 647.41 114.08 657.24 109.80
  C 665.22 106.34 664.92 100.21 664.63 92.69
  Z"
/>
<path fill="#ffffff" d="
  M 632.50 56.76
  L 632.50 53.79
  Q 632.50 52.83 633.46 52.83
  L 640.54 52.83
  Q 641.50 52.83 641.50 53.79
  L 641.50 56.81
  Q 641.50 57.38 642.07 57.38
  Q 654.81 57.37 667.49 57.37
  C 672.97 57.37 678.10 58.86 680.63 64.09
  C 681.91 66.73 681.68 70.26 681.68 73.21
  Q 681.68 74.17 680.72 74.17
  L 673.70 74.17
  Q 672.62 74.17 672.78 73.10
  C 673.28 69.77 671.48 66.46 668.00 66.45
  Q 639.19 66.38 610.38 66.37
  C 604.35 66.37 600.57 66.31 601.01 73.44
  Q 601.06 74.18 600.31 74.18
  L 592.68 74.17
  Q 591.94 74.16 591.96 73.42
  C 592.05 70.66 591.96 67.39 592.87 64.89
  Q 595.56 57.53 604.01 57.50
  Q 617.96 57.45 631.94 57.33
  Q 632.51 57.32 632.50 56.76
  Z"
/>
<rect fill="#ffffff" x="-11.66" y="-41.96" transform="translate(18.67,113.85) rotate(0.1)" width="23.32" height="83.92" rx="11.32"/>
<rect fill="#ffffff" x="-11.66" y="-41.96" transform="translate(204.65,113.85) rotate(0.1)" width="23.32" height="83.92" rx="11.31"/>
<rect fill="#ffffff" x="-11.68" y="-71.90" transform="translate(111.66,165.28) rotate(0.1)" width="23.36" height="143.80" rx="11.14"/>
<path fill="#ffffff" d="
  M 314.68 177.01
  L 303.19 177.01
  A 0.32 0.32 0.0 0 0 302.87 177.33
  L 302.87 190.86
  A 0.32 0.32 0.0 0 1 302.55 191.18
  L 295.64 191.17
  A 0.32 0.32 0.0 0 1 295.32 190.85
  L 295.33 161.56
  A 0.32 0.32 0.0 0 1 295.65 161.24
  L 302.55 161.24
  A 0.32 0.32 0.0 0 1 302.87 161.56
  L 302.87 174.26
  A 0.32 0.32 0.0 0 0 303.19 174.58
  L 314.68 174.58
  A 0.32 0.32 0.0 0 0 315.00 174.26
  L 315.00 161.52
  A 0.32 0.32 0.0 0 1 315.32 161.20
  L 322.20 161.25
  A 0.32 0.32 0.0 0 1 322.52 161.57
  L 322.51 190.85
  A 0.32 0.32 0.0 0 1 322.19 191.17
  L 315.32 191.17
  A 0.32 0.32 0.0 0 1 315.00 190.85
  L 315.00 177.33
  A 0.32 0.32 0.0 0 0 314.68 177.01
  Z"
/>
<path fill="#ffffff" d="
  M 496.03 188.75
  L 498.63 188.75
  A 0.36 0.36 0.0 0 1 498.99 189.11
  L 499.00 190.82
  A 0.36 0.36 0.0 0 1 498.64 191.18
  L 485.12 191.17
  A 0.36 0.36 0.0 0 1 484.76 190.81
  L 484.75 189.11
  A 0.36 0.36 0.0 0 1 485.11 188.75
  L 487.76 188.75
  A 0.36 0.36 0.0 0 0 488.12 188.39
  L 488.13 164.02
  A 0.36 0.36 0.0 0 0 487.77 163.66
  L 485.11 163.68
  A 0.36 0.36 0.0 0 1 484.75 163.32
  L 484.76 161.60
  A 0.36 0.36 0.0 0 1 485.12 161.24
  L 498.64 161.23
  A 0.36 0.36 0.0 0 1 499.00 161.60
  L 498.98 163.38
  A 0.36 0.36 0.0 0 1 498.60 163.74
  L 496.04 163.63
  A 0.36 0.36 0.0 0 0 495.67 163.99
  L 495.67 188.39
  A 0.36 0.36 0.0 0 0 496.03 188.75
  Z"
/>
<path fill="#ffffff" d="
  M 524.00 163.99
  L 524.00 190.94
  A 0.31 0.31 0.0 0 1 523.69 191.25
  L 516.80 191.25
  A 0.31 0.31 0.0 0 1 516.49 190.94
  L 516.49 163.97
  A 0.31 0.31 0.0 0 0 516.18 163.66
  L 508.32 163.69
  A 0.31 0.31 0.0 0 1 508.01 163.38
  L 508.01 161.54
  A 0.31 0.31 0.0 0 1 508.32 161.23
  L 532.18 161.24
  A 0.31 0.31 0.0 0 1 532.49 161.55
  L 532.49 163.36
  A 0.31 0.31 0.0 0 1 532.18 163.67
  L 524.31 163.68
  A 0.31 0.31 0.0 0 0 524.00 163.99
  Z"
/>
<path fill="#ffffff" d="
  M 272.75 174.57
  L 290.75 174.58
  Q 291.20 174.58 291.20 175.03
  Q 291.18 180.08 291.04 184.99
  C 290.88 190.39 287.58 191.26 282.72 191.25
  Q 273.79 191.25 264.99 191.25
  Q 264.74 191.25 264.74 191.00
  L 264.75 189.04
  Q 264.75 188.83 264.96 188.83
  L 280.79 188.83
  A 2.88 2.88 0.0 0 0 283.67 185.96
  L 283.67 177.59
  Q 283.67 177.02 283.09 177.02
  L 265.26 177.01
  Q 264.75 177.01 264.75 176.51
  C 264.70 170.89 262.60 161.33 271.47 161.27
  Q 281.24 161.20 290.87 161.25
  Q 291.16 161.25 291.16 161.54
  L 291.19 163.23
  A 0.43 0.42 -90.0 0 1 290.77 163.66
  L 275.00 163.68
  A 2.82 2.82 0.0 0 0 272.19 166.50
  L 272.17 174.00
  A 0.58 0.57 -0.0 0 0 272.75 174.57
  Z"
/>
<path fill="#ffffff" d="
  M 334.77 163.98
  L 334.76 174.28
  A 0.30 0.30 0.0 0 0 335.06 174.58
  L 350.33 174.58
  A 0.30 0.30 0.0 0 1 350.63 174.86
  L 350.73 176.70
  A 0.30 0.30 0.0 0 1 350.43 177.02
  L 335.07 177.01
  A 0.30 0.30 0.0 0 0 334.77 177.31
  L 334.76 188.65
  A 0.30 0.30 0.0 0 0 335.06 188.95
  L 350.92 188.90
  A 0.30 0.30 0.0 0 1 351.22 189.20
  L 351.25 190.96
  A 0.30 0.30 0.0 0 1 350.95 191.26
  L 327.55 191.26
  A 0.30 0.30 0.0 0 1 327.25 190.96
  L 327.25 161.54
  A 0.30 0.30 0.0 0 1 327.55 161.24
  L 350.95 161.23
  A 0.30 0.30 0.0 0 1 351.25 161.53
  L 351.23 163.36
  A 0.30 0.30 0.0 0 1 350.93 163.66
  L 335.07 163.68
  A 0.30 0.30 0.0 0 0 334.77 163.98
  Z"
/>
<path fill="#ffffff" d="
  M 372.26 179.31
  Q 372.98 180.82 372.98 179.15
  L 372.99 161.71
  Q 372.99 161.40 373.30 161.40
  L 379.95 161.38
  Q 380.26 161.38 380.26 161.70
  L 380.26 190.75
  Q 380.26 191.27 379.75 191.27
  L 372.05 191.26
  Q 371.53 191.26 371.30 190.79
  L 362.76 173.07
  Q 362.13 171.75 362.13 173.21
  L 362.12 190.89
  A 0.38 0.38 0.0 0 1 361.74 191.27
  L 355.01 191.26
  Q 354.75 191.26 354.75 191.00
  L 354.75 161.95
  Q 354.75 161.40 355.30 161.39
  L 363.16 161.37
  Q 363.77 161.37 364.03 161.92
  L 372.26 179.31
  Z"
/>
<path fill="#ffffff" d="
  M 392.96 188.75
  L 402.99 188.75
  A 2.75 2.74 0.0 0 0 405.74 186.01
  L 405.76 177.52
  Q 405.76 177.02 405.26 177.02
  L 396.75 177.01
  A 0.51 0.51 0.0 0 1 396.24 176.50
  L 396.27 175.02
  A 0.46 0.45 0.6 0 1 396.73 174.58
  L 412.75 174.58
  Q 413.21 174.58 413.22 175.05
  Q 413.32 179.93 413.22 184.74
  C 413.12 189.87 409.99 191.12 405.26 191.16
  Q 395.36 191.25 385.48 191.13
  Q 384.87 191.12 384.87 190.51
  L 384.89 161.80
  Q 384.89 161.24 385.45 161.24
  L 412.99 161.23
  A 0.26 0.26 0.0 0 1 413.25 161.49
  L 413.23 163.47
  Q 413.22 163.67 413.03 163.67
  L 393.00 163.67
  A 0.58 0.58 0.0 0 0 392.42 164.25
  L 392.43 188.21
  Q 392.43 188.75 392.96 188.75
  Z"
/>
<path fill="#ffffff" d="
  M 430.79 174.57
  L 448.73 174.59
  Q 449.14 174.59 449.16 175.00
  C 449.46 182.90 451.31 191.19 441.58 191.23
  Q 432.22 191.27 422.98 191.24
  A 0.24 0.24 0.0 0 1 422.74 191.00
  L 422.75 189.04
  Q 422.75 188.83 422.96 188.83
  L 438.82 188.83
  A 2.91 2.90 0.0 0 0 441.73 185.93
  L 441.74 177.50
  A 0.49 0.48 0.0 0 0 441.25 177.02
  L 423.25 177.01
  Q 422.76 177.01 422.75 176.52
  C 422.68 170.95 420.67 161.34 429.46 161.27
  Q 439.30 161.19 449.01 161.25
  Q 449.25 161.25 449.25 161.50
  L 449.23 163.47
  Q 449.22 163.66 449.03 163.66
  L 433.03 163.68
  A 2.79 2.79 0.0 0 0 430.25 166.47
  L 430.25 174.04
  Q 430.25 174.57 430.79 174.57
  Z"
/>
<path fill="#ffffff" d="
  M 473.07 174.25
  L 473.08 161.58
  A 0.33 0.33 0.0 0 1 473.41 161.25
  L 480.19 161.23
  A 0.33 0.33 0.0 0 1 480.52 161.56
  L 480.51 190.85
  A 0.33 0.33 0.0 0 1 480.18 191.18
  L 473.40 191.16
  A 0.33 0.33 0.0 0 1 473.07 190.83
  L 473.07 177.35
  A 0.33 0.33 0.0 0 0 472.74 177.02
  L 461.20 177.01
  A 0.33 0.33 0.0 0 0 460.87 177.34
  L 460.87 190.85
  A 0.33 0.33 0.0 0 1 460.54 191.18
  L 453.71 191.17
  A 0.33 0.33 0.0 0 1 453.38 190.84
  L 453.38 161.57
  A 0.33 0.33 0.0 0 1 453.71 161.24
  L 460.54 161.24
  A 0.33 0.33 0.0 0 1 460.87 161.57
  L 460.87 174.25
  A 0.33 0.33 0.0 0 0 461.20 174.58
  L 472.74 174.58
  A 0.33 0.33 0.0 0 0 473.07 174.25
  Z"
/>
<path fill="#ffffff" d="
  M 546.85 188.75
  L 549.32 188.75
  A 0.43 0.43 0.0 0 1 549.75 189.18
  L 549.73 190.74
  A 0.43 0.43 0.0 0 1 549.30 191.17
  L 535.95 191.17
  A 0.43 0.43 0.0 0 1 535.52 190.74
  L 535.50 189.18
  A 0.43 0.43 0.0 0 1 535.93 188.75
  L 538.45 188.76
  A 0.43 0.43 0.0 0 0 538.88 188.33
  L 538.88 164.08
  A 0.43 0.43 0.0 0 0 538.44 163.65
  L 535.95 163.70
  A 0.43 0.43 0.0 0 1 535.51 163.27
  L 535.51 161.66
  A 0.43 0.43 0.0 0 1 535.94 161.23
  L 549.32 161.23
  A 0.43 0.43 0.0 0 1 549.75 161.67
  L 549.73 163.29
  A 0.43 0.43 0.0 0 1 549.28 163.72
  L 546.86 163.64
  A 0.43 0.43 0.0 0 0 546.42 164.07
  L 546.42 188.32
  A 0.43 0.43 0.0 0 0 546.85 188.75
  Z"
/>
<path fill="#ffffff" d="
  M 572.22 181.50
  L 563.94 181.50
  A 0.30 0.30 0.0 0 0 563.65 181.71
  L 560.76 190.96
  A 0.30 0.30 0.0 0 1 560.47 191.17
  L 553.56 191.18
  A 0.30 0.30 0.0 0 1 553.28 190.78
  L 563.55 161.45
  A 0.30 0.30 0.0 0 1 563.83 161.25
  L 572.35 161.25
  A 0.30 0.30 0.0 0 1 572.63 161.45
  L 582.88 190.78
  A 0.30 0.30 0.0 0 1 582.60 191.18
  L 575.75 191.17
  A 0.30 0.30 0.0 0 1 575.46 190.96
  L 572.51 181.71
  A 0.30 0.30 0.0 0 0 572.22 181.50
  Z
  M 564.66 178.61
  A 0.30 0.30 0.0 0 0 564.94 179.00
  L 571.23 178.99
  A 0.30 0.30 0.0 0 0 571.52 178.60
  L 568.35 168.77
  A 0.30 0.30 0.0 0 0 567.78 168.77
  L 564.66 178.61
  Z"
/>
<path fill="#ffffff" d="
  M 605.07 179.74
  L 605.08 161.74
  A 0.32 0.31 90.0 0 1 605.39 161.42
  L 612.12 161.37
  A 0.38 0.37 0.0 0 1 612.50 161.74
  L 612.50 190.76
  Q 612.50 191.27 611.99 191.27
  L 604.13 191.26
  Q 603.68 191.26 603.49 190.86
  L 594.81 172.89
  Q 594.25 171.72 594.25 173.02
  L 594.25 191.01
  A 0.26 0.25 -0.0 0 1 593.99 191.26
  L 587.19 191.26
  Q 586.87 191.26 586.87 190.94
  L 586.89 162.01
  Q 586.89 161.39 587.50 161.39
  L 595.32 161.37
  Q 595.92 161.36 596.18 161.91
  L 604.66 179.83
  Q 605.07 180.68 605.07 179.74
  Z"
/>
<path fill="#ffffff" d="
  M 632.76 181.71
  L 629.88 190.96
  A 0.30 0.30 0.0 0 1 629.59 191.17
  L 622.67 191.17
  A 0.30 0.30 0.0 0 1 622.39 190.77
  L 632.67 161.45
  A 0.30 0.30 0.0 0 1 632.95 161.25
  L 641.47 161.25
  A 0.30 0.30 0.0 0 1 641.75 161.45
  L 651.99 190.76
  A 0.30 0.30 0.0 0 1 651.71 191.16
  L 644.88 191.18
  A 0.30 0.30 0.0 0 1 644.59 190.97
  L 641.61 181.71
  A 0.30 0.30 0.0 0 0 641.32 181.50
  L 633.05 181.50
  A 0.30 0.30 0.0 0 0 632.76 181.71
  Z
  M 633.79 178.60
  A 0.32 0.32 0.0 0 0 634.10 179.01
  L 640.33 178.99
  A 0.32 0.32 0.0 0 0 640.63 178.57
  L 637.48 168.84
  A 0.32 0.32 0.0 0 0 636.87 168.85
  L 633.79 178.60
  Z"
/>
<path fill="#ffffff" d="
  M 674.23 179.82
  L 674.23 161.77
  Q 674.24 161.41 674.60 161.41
  L 681.13 161.38
  A 0.38 0.38 0.0 0 1 681.51 161.76
  L 681.51 190.75
  Q 681.52 191.26 681.00 191.26
  L 673.31 191.26
  Q 672.79 191.26 672.57 190.80
  L 663.96 172.93
  Q 663.34 171.64 663.34 173.08
  L 663.38 190.94
  Q 663.38 191.27 663.06 191.27
  L 656.26 191.26
  A 0.26 0.25 -0.0 0 1 656.00 191.01
  L 656.00 161.76
  A 0.36 0.36 0.0 0 1 656.36 161.40
  L 664.76 161.36
  A 0.44 0.43 76.8 0 1 665.15 161.61
  L 673.82 179.91
  Q 674.23 180.79 674.23 179.82
  Z"
/>
</svg>
