<?xml version="1.0" encoding="UTF-8"?>
<svg width="47px" height="48.579974px" viewBox="0 0 47 48.579974" version="1.1" xmlns="http://www.w3.org/2000/svg" xmlns:xlink="http://www.w3.org/1999/xlink">
    <title>jieguofenxi</title>
    <defs>
        <filter x="-2.2%" y="-9.3%" width="104.4%" height="122.8%" filterUnits="objectBoundingBox" id="filter-1">
            <feOffset dx="0" dy="5" in="SourceAlpha" result="shadowOffsetOuter1"></feOffset>
            <feGaussianBlur stdDeviation="8" in="shadowOffsetOuter1" result="shadowBlurOuter1"></feGaussianBlur>
            <feColorMatrix values="0 0 0 0 0.874251656   0 0 0 0 0.874251656   0 0 0 0 0.874251656  0 0 0 0.5 0" type="matrix" in="shadowBlurOuter1" result="shadowMatrixOuter1"></feColorMatrix>
            <feMerge>
                <feMergeNode in="shadowMatrixOuter1"></feMergeNode>
                <feMergeNode in="SourceGraphic"></feMergeNode>
            </feMerge>
        </filter>
    </defs>
    <g id="页面-1" stroke="none" stroke-width="1" fill="none" fill-rule="evenodd">
        <g id="科茵_搜索结果页方案三-✅" transform="translate(-124.000000, -380.000000)" fill="#1ABC9C" fill-rule="nonzero">
            <g id="编组" filter="url(#filter-1)" transform="translate(119.000000, 367.000000)">
                <g id="jieguofenxi" transform="translate(21.000000, 24.000000)">
                    <path d="M7.96693108,16.053316 L0.585175553,16.053316 C0.261983095,16.053316 0,15.7913329 0,15.4681404 L0,1.6970091 C0,1.37381664 0.261983095,1.11183355 0.585175553,1.11183355 L2.55528609,1.11183355 L2.55526658,1.12158648 C2.55526658,2.06420676 3.31940832,2.8283485 4.26202861,2.8283485 L9.41157347,2.8283485 C10.3541938,2.8283485 11.1183355,2.06420676 11.1183355,1.12158648 L11.118316,1.11183355 L13.0884265,1.11183355 C13.411619,1.11183355 13.6736021,1.37381664 13.6736021,1.6970091 L13.6736021,8.89574122 C12.9977243,8.51024707 12.2154226,8.289987 11.3816645,8.289987 C8.82312094,8.289987 6.74902471,10.3640832 6.74902471,12.9226268 C6.74902471,14.1296489 7.21063069,15.2288427 7.96693108,16.053316 Z M3.15994798,4.70091027 L3.15994798,5.87126138 L10.3381014,5.87126138 L10.3381014,4.70091027 L3.15994798,4.70091027 Z M3.15994798,7.41222367 L3.15994798,8.58257477 L7.64629389,8.58257477 L7.64629389,7.41222367 L3.15994798,7.41222367 Z M4.26202861,0 L9.43107932,0 C10.0505072,0 10.5526658,0.502158648 10.5526658,1.12158648 C10.5526658,1.7410143 10.0505072,2.24317295 9.43107932,2.24317295 L4.26202861,2.24317295 C3.64260078,2.24317295 3.14044213,1.7410143 3.14044213,1.12158648 C3.14044213,0.502158648 3.64260078,0 4.26202861,0 Z M10.7769831,8.98780884 L10.7769831,13.1409948 L14.9047139,13.1409948 C14.7211638,15.0706112 13.0960338,16.579974 11.1183355,16.579974 C9.01763329,16.579974 7.31469441,14.8770351 7.31469441,12.7763329 C7.31469441,10.7906957 8.83622887,9.16041612 10.7769831,8.98780884 Z M11.3719116,8.8946684 C13.3756502,8.8946684 15,10.5190182 15,12.5227568 L11.3719116,12.5227568 L11.3719116,8.8946684 Z" id="形状"></path>
                </g>
            </g>
        </g>
    </g>
</svg>