<?xml version="1.0" encoding="UTF-8"?>
<svg width="28px" height="26px" viewBox="0 0 28 26" version="1.1" xmlns="http://www.w3.org/2000/svg" xmlns:xlink="http://www.w3.org/1999/xlink">
    <title>编组 2 2</title>
    <defs>
        <linearGradient x1="69.318662%" y1="50%" x2="0%" y2="50%" id="linearGradient-1">
            <stop stop-color="#1ABC9C" offset="0%"></stop>
            <stop stop-color="#EEFFFC" offset="100%"></stop>
        </linearGradient>
    </defs>
    <g id="页面-1" stroke="none" stroke-width="1" fill="none" fill-rule="evenodd">
        <g id="科茵首页" transform="translate(-1020.000000, -1643.000000)">
            <g id="编组-9" transform="translate(280.000000, 1598.000000)">
                <g id="编组-8备份" transform="translate(700.000000, 0.000000)">
                    <g id="编组-2" transform="translate(40.000000, 45.000000)">
                        <rect id="矩形备份-5" fill="#1ABC9C" x="0" y="5" width="22" height="17" rx="2"></rect>
                        <rect id="矩形" stroke="url(#linearGradient-1)" stroke-width="0.5" fill-opacity="0.35" fill="#1ABC9C" x="5.25" y="0.25" width="22.5" height="25.5" rx="3"></rect>
                        <g id="知识图谱" transform="translate(12.000000, 8.000000)" fill="#FFFFFF" fill-rule="nonzero">
                            <path d="M1.06302794,0.036956441 L4.65664427,0.505752949 C4.89521736,0.537032893 5.13685325,0.537032893 5.37542634,0.505752949 C7.18796889,0.224592685 8.28143526,0.0684252194 8.96904267,0.00578177253 C9.23414229,-0.0239439154 9.49920725,0.0619008819 9.69654853,0.24139418 C9.89388982,0.420887478 10.0044026,0.67665237 9.99986559,0.943374775 L9.99986559,8.22413144 C10.0048522,8.68600416 9.67391505,9.08322841 9.21873415,9.16172443 L5.43777569,9.84903774 C5.14947421,9.91153737 4.85112762,9.91153737 4.56282614,9.84903774 L0.781867678,9.16172443 C0.332876994,9.07258179 0.00721438515,8.68183569 0.000442141349,8.22413144 L0.000442141349,0.974549444 C-0.00804229775,0.700695545 0.105941266,0.437303025 0.311384154,0.256026544 C0.516827043,0.0747500626 0.792360852,-0.00555555679 1.06302794,0.036956441 Z M3.00026917,2.03684113 L2.81292704,2.03684113 C2.03961849,2.04464729 1.4146378,2.66962798 1.40683164,3.44293653 L1.40683164,3.56792932 C1.41914893,4.40837112 2.09747803,5.08670023 2.93791984,5.09901752 C3.1091427,5.1011325 3.27908274,5.06924374 3.437891,5.00519939 L4.15667309,6.09895986 C3.87709827,6.47697562 3.80657247,6.97032457 3.96903685,7.41153124 C4.0826343,7.69687693 4.30865512,7.92289775 4.59400082,8.0364952 C4.97174418,8.20977197 5.41130258,8.18148007 5.76371537,7.96120727 C6.11612817,7.74093446 6.33415143,7.35821018 6.34389992,6.94273473 C6.34389992,6.75509849 6.31272525,6.66157447 6.31272525,6.53658168 L7.4064857,5.63045746 C7.55528681,5.69151078 7.71444551,5.72336249 7.87528221,5.72427557 C8.19540578,5.7217475 8.49130564,5.55334558 8.65696425,5.27940633 C8.82262285,5.00546708 8.83432669,4.66520401 8.68788242,4.38052952 C8.60501278,4.2193461 8.47379335,4.08812668 8.31260993,4.00525705 C8.02836051,3.85464538 7.68591041,3.86431888 7.41061641,4.03073648 C7.1353224,4.19715409 6.96760701,4.49588004 6.96886388,4.81756316 C6.96376089,4.91235884 6.97429318,5.00734815 7.00003856,5.09872341 L5.90627809,6.00484763 C5.68764852,5.82117069 5.41068342,5.72147994 5.12514666,5.72368738 C4.99694941,5.71380539 4.86826982,5.73520152 4.75016829,5.78603672 L4.0313862,4.69227626 C4.3144806,4.39881741 4.4715464,4.00625848 4.46900802,3.5985158 C4.48875989,3.19458812 4.34346531,2.79998408 4.06648712,2.50531345 C3.78950892,2.21064281 3.40464521,2.04122383 3.00026917,2.03595883 L3.00026917,2.03684113 Z" id="形状"></path>
                        </g>
                    </g>
                </g>
            </g>
        </g>
    </g>
</svg>