<?xml version="1.0" encoding="UTF-8"?>
<svg width="30px" height="21px" viewBox="0 0 30 21" version="1.1" xmlns="http://www.w3.org/2000/svg" xmlns:xlink="http://www.w3.org/1999/xlink">
    <title>编组 2备份</title>
    <defs>
        <linearGradient x1="69.318662%" y1="50%" x2="0%" y2="50%" id="linearGradient-1">
            <stop stop-color="#1ABC9C" offset="0%"></stop>
            <stop stop-color="#EEFFFC" offset="100%"></stop>
        </linearGradient>
    </defs>
    <g id="页面-1" stroke="none" stroke-width="1" fill="none" fill-rule="evenodd">
        <g id="科茵首页" transform="translate(-1021.000000, -1948.000000)">
            <g id="编组-8备份-2" transform="translate(980.000000, 1898.000000)">
                <g id="编组-2备份" transform="translate(41.000000, 50.000000)">
                    <rect id="矩形备份-5" fill="#1ABC9C" x="0" y="4" width="22" height="17" rx="2"></rect>
                    <rect id="矩形" stroke="url(#linearGradient-1)" stroke-width="0.5" fill-opacity="0.35" fill="#1ABC9C" x="4.25" y="0.25" width="25.5" height="17.5" rx="3"></rect>
                    <g id="p074wenbenjiqiren" transform="translate(11.000000, 4.000000)" fill="#FFFFFF" fill-rule="nonzero">
                        <path d="M10.6666667,0 C11.4030463,0 12,0.596953665 12,1.33333333 L12,8 C12,8.73637966 11.4030463,9.33333333 10.6666667,9.33333333 L7.5,9.33333333 L6.58133333,10.9666667 C6.46333521,11.1768671 6.24105556,11.3069961 6,11.3069961 C5.75894444,11.3069961 5.53666479,11.1768671 5.41866667,10.9666667 L4.5,9.33333333 L1.33333333,9.33333333 C0.596953665,9.33333333 0,8.73637966 0,8 L0,1.33333333 C0,0.596953665 0.596953665,0 1.33333333,0 L10.6666667,0 L10.6666667,0 Z M8.82533333,2.33333333 C8.69007278,2.33368649 8.56049249,2.38775747 8.46509889,2.48365117 C8.36970529,2.57954487 8.31631259,2.70940611 8.31666492,2.84466666 L8.31666492,6.822 L8.32066667,6.886 C8.352,7.138 8.566,7.33266666 8.82533333,7.33266666 C9.10647753,7.33156436 9.33370299,7.10314612 9.33333378,6.822 L9.33333378,2.84466666 L9.32933333,2.78066666 C9.29777462,2.52610844 9.08183926,2.33473716 8.82533333,2.334 L8.82533333,2.33333333 Z M5.15133333,3.988 L5.74066667,5.174 L4.562,5.174 L5.15133333,3.988 Z M4.92466667,2.388 L4.95266667,2.374 L4.93066667,2.384 L4.91866667,2.39066666 C4.81943684,2.4422503 4.73982575,2.52490534 4.692,2.626 L2.72066667,6.59266666 L2.69533333,6.65266666 C2.61133333,6.89199998 2.716,7.16266666 2.948,7.27933333 C3.06860396,7.3397782 3.20833356,7.34963082 3.33622618,7.30670795 C3.46411881,7.26378508 3.56961336,7.1716312 3.62933333,7.05066666 L4.05333333,6.19666666 L6.24933333,6.19666666 L6.674,7.05 L6.706,7.106 C6.84746636,7.3196717 7.12619965,7.39407689 7.35533333,7.27933333 C7.60688683,7.15176719 7.70840103,6.84514073 7.58266667,6.59266666 L5.60666667,2.61666666 L5.6,2.60333333 C5.59537574,2.59430144 5.5904847,2.58540864 5.58533333,2.57666666 L5.57466667,2.56133333 C5.56433474,2.54587853 5.5532087,2.53096964 5.54133333,2.51666666 L5.51666667,2.48866666 C5.49885466,2.47036235 5.47968934,2.45342556 5.45933333,2.438 L5.43066667,2.418 L5.384,2.39066666 L5.41,2.40466666 L5.39466667,2.396 L5.37933333,2.388 C5.33299493,2.3639231 5.28298226,2.34770278 5.23133333,2.34 L5.2,2.336 C5.19489259,2.33569965 5.18978088,2.3354774 5.18466667,2.33533333 L5.156,2.334 L5.13333333,2.334 C5.11772502,2.33462261 5.10215326,2.33595733 5.08666667,2.338 L5.06133333,2.342 C5.04379076,2.34531157 5.02643366,2.34953958 5.00933333,2.35466666 L4.98666667,2.36133333 L4.98733333,2.36133333 L4.98066667,2.364 L4.92466667,2.388 L4.92466667,2.388 Z" id="形状"></path>
                    </g>
                </g>
            </g>
        </g>
    </g>
</svg>