<?xml version="1.0" encoding="UTF-8"?>
<svg width="31px" height="23px" viewBox="0 0 31 23" version="1.1" xmlns="http://www.w3.org/2000/svg" xmlns:xlink="http://www.w3.org/1999/xlink">
    <title>编组 2</title>
    <defs>
        <linearGradient x1="69.318662%" y1="50%" x2="0%" y2="50%" id="linearGradient-1">
            <stop stop-color="#1ABC9C" offset="0%"></stop>
            <stop stop-color="#EEFFFC" offset="100%"></stop>
        </linearGradient>
    </defs>
    <g id="页面-1" stroke="none" stroke-width="1" fill="none" fill-rule="evenodd">
        <g id="科茵首页" transform="translate(-320.000000, -1644.000000)">
            <g id="编组-9" transform="translate(280.000000, 1598.000000)">
                <g id="编组-2" transform="translate(40.000000, 46.000000)">
                    <rect id="矩形备份-5" fill="#1ABC9C" x="0" y="0" width="22" height="17" rx="2"></rect>
                    <rect id="矩形" stroke="url(#linearGradient-1)" stroke-width="0.5" fill-opacity="0.35" fill="#1ABC9C" x="5.25" y="5.25" width="25.5" height="17.5" rx="3"></rect>
                    <g id="常规检索" transform="translate(13.000000, 9.000000)" fill="#FFFFFF" fill-rule="nonzero">
                        <path d="M8.68844411,8.1831326 L9.89534645,9.39003458 C10.0348845,9.52957261 10.0348845,9.75580845 9.89534645,9.89534648 C9.75580838,10.0348845 9.52957248,10.0348845 9.3900344,9.89534649 L8.18313205,8.6884445 C8.09286674,8.59817922 8.05761412,8.46661471 8.09065351,8.34331005 C8.12369291,8.22000538 8.22000485,8.12369348 8.34330955,8.09065409 C8.46661425,8.05761471 8.5981788,8.09286732 8.68844411,8.1831326 L8.68844411,8.1831326 Z M6.78412758,4.28536907 C5.75735815,4.28411042 4.87286653,5.00878242 4.67217883,6.01574864 C4.47149113,7.02271487 5.01058438,8.03110621 5.95940111,8.42353948 C6.90821784,8.81597276 8.00210833,8.4829881 8.57134292,7.62845391 C9.14057751,6.77391971 9.02638184,5.63618784 8.29867171,4.91182964 C7.89870258,4.50770197 7.3527066,4.28187649 6.78412758,4.28536907 M6.78412758,3.57407553 C8.36017743,3.57407553 9.63781826,4.85171598 9.63781826,6.42776534 C9.63781826,8.0038147 8.36017743,9.28145515 6.78412759,9.28145515 C5.20807775,9.28145515 3.93043656,8.00381471 3.93043656,6.42776535 C3.93006759,5.6706786 4.23056038,4.94447375 4.76577123,4.40900199 C5.30098208,3.87353022 6.02704051,3.57268349 6.78412758,3.57268349 L6.78412758,3.57407553 Z M6.78412758,2.85717297 C7.26198955,2.85698881 7.7351393,2.95161873 8.17617183,3.13558173 C8.60025246,3.31510342 8.98552631,3.5751041 9.31068788,3.90120583 C9.48281328,4.0718234 9.63590705,4.26062343 9.76727838,4.46428755 L9.99835773,4.46428755 L9.99835773,1.42824 C9.99835773,1.04908595 9.84759696,0.685491496 9.57929871,0.417585006 C9.31100047,0.149678517 8.94718604,-0.000551270172 8.56803228,1.52015991e-06 L5.53407186,1.52015991e-06 L5.53407186,3.08198805 C5.93376724,2.9318024 6.35714805,2.85448121 6.78412758,2.85369286 L6.78412758,2.85717297 Z M4.25965537,3.90398992 C4.32925758,3.83438773 4.39468366,3.77452985 4.46219781,3.71676002 L4.46219781,3.04872333e-06 L1.42823739,3.04872333e-06 C0.639443659,3.04872333e-06 0,0.639446513 0,1.42824 L0,4.46219949 L3.80306486,4.46219949 C3.93618935,4.26131253 4.08915386,4.07430416 4.25965537,3.90398992 Z M4.25965537,8.95293282 C3.58939934,8.28401821 3.21362505,7.37539624 3.21562219,6.42846138 C3.21673378,6.1269443 3.25412372,5.8266564 3.32698572,5.53407322 L0,5.53407322 L0,8.56803272 C0,9.35682621 0.639443659,9.99626967 1.42823739,9.99626967 L4.46219781,9.99626967 L4.46219781,9.14016272 C4.39468366,9.08239291 4.32716951,9.01975093 4.25965537,8.95293282 L4.25965537,8.95293282 Z" id="形状"></path>
                    </g>
                </g>
            </g>
        </g>
    </g>
</svg>