<?xml version="1.0" encoding="UTF-8"?>
<svg width="29px" height="22px" viewBox="0 0 29 22" version="1.1" xmlns="http://www.w3.org/2000/svg" xmlns:xlink="http://www.w3.org/1999/xlink">
    <title>编组 2备份 2</title>
    <defs>
        <linearGradient x1="69.0760099%" y1="50%" x2="3.34132268%" y2="70.6243186%" id="linearGradient-1">
            <stop stop-color="#EEFFFC" offset="0%"></stop>
            <stop stop-color="#1ABC9C" offset="100%"></stop>
        </linearGradient>
    </defs>
    <g id="页面-1" stroke="none" stroke-width="1" fill="none" fill-rule="evenodd">
        <g id="科茵首页" transform="translate(-320.000000, -1945.000000)">
            <g id="编组-8备份-3" transform="translate(280.000000, 1898.000000)">
                <g id="编组-2备份-2" transform="translate(40.000000, 47.000000)">
                    <rect id="矩形备份-5" fill="#1ABC9C" x="7" y="0" width="22" height="18" rx="2"></rect>
                    <rect id="矩形" stroke="url(#linearGradient-1)" stroke-width="0.5" fill-opacity="0.35" fill="#1ABC9C" x="0.25" y="3.25" width="24.5" height="18.5" rx="3"></rect>
                    <g id="science-dna" transform="translate(7.000000, 6.000000)" fill="#FFFFFF" fill-rule="nonzero">
                        <path d="M11.9711687,3.29667979 C11.9267567,3.17346869 11.8350674,3.07296573 11.7163337,3.01734865 C11.5976001,2.96173158 11.4615814,2.95557187 11.3382927,3.00022879 C11.2860161,3.01762986 11.2328714,3.0323138 11.1790723,3.04422152 C11.1366132,3.05477857 11.0917231,3.04224401 11.0609087,3.01122698 L8.98904088,0.940069406 C8.95680769,0.907911897 8.94471301,0.860758228 8.95749721,0.817089733 C8.972518,0.767097997 8.98803949,0.713606841 9.00756652,0.662615272 C9.10006416,0.405155079 8.96601175,0.12157437 8.70815207,0.0292200197 C8.45029239,-0.0631343308 8.16627165,0.0707103886 8.07377399,0.328170573 C7.69313017,1.38183731 7.72785316,2.54057465 8.17090843,3.56963466 C8.46796941,4.27656142 8.51874843,5.06259281 8.31510803,5.80176562 C8.30320403,5.84475266 8.26934139,5.87820015 8.22616178,5.88962142 C8.18298216,5.90104269 8.13697571,5.88872105 8.10531764,5.85725644 L6.13909604,3.89408101 C6.10753608,3.86257881 6.09516057,3.81668285 6.10661412,3.77361827 C6.11806768,3.73055369 6.15161785,3.69683441 6.19467297,3.68511557 C6.47006892,3.61036656 6.75352768,3.56923974 7.03884145,3.56263581 C7.17018156,3.56001074 7.29509467,3.50538557 7.38608769,3.41078317 C7.47708071,3.31618078 7.52669588,3.18935476 7.52401302,3.0582192 C7.51075721,2.78860508 7.28916134,2.57612369 7.01881373,2.5737993 C5.84706222,2.60099703 4.73033615,3.07565754 3.89849464,3.90008002 C2.6051559,5.18897941 2.21807744,7.12946607 2.91813765,8.81476747 C3.05507821,9.13584721 3.14236048,9.47583869 3.17699596,9.82310077 L2.013886,8.66179277 C2.16492727,8.52281696 2.21329147,8.30461863 2.13508679,8.11498722 C2.05688211,7.92535581 1.86865966,7.80442458 1.66340087,7.81193327 C1.20957095,7.8393064 0.761214556,7.9253435 0.329554588,8.06789096 C0.102209452,8.14848228 -0.0338818604,8.3809262 0.00732342199,8.61826168 C0.0485287044,8.85559715 0.255037201,9.02874435 0.496285375,9.02823217 C0.552602881,9.02791403 0.60846304,9.0181114 0.661514079,8.99923698 C0.711583385,8.98074004 0.766659624,8.9682421 0.819733082,8.95474433 C0.86234594,8.94420479 0.907374294,8.95672491 0.938397331,8.98773888 L3.01076587,11.0568968 C3.04298843,11.0892663 3.05506779,11.1365517 3.04230952,11.1803764 C3.02728912,11.2335473 3.01059103,11.2862316 2.99224022,11.3383502 C2.93231528,11.5044513 2.9656937,11.689855 3.07980216,11.8247217 C3.19391061,11.9595883 3.37141331,12.0234284 3.5454467,11.992194 C3.71948009,11.9609596 3.86360436,11.8393959 3.9235293,11.6732949 C4.30630219,10.6185827 4.27228501,9.45789122 3.82839762,8.42733153 C3.53087655,7.7205128 3.48008745,6.93432525 3.68419802,6.19520057 C3.69609461,6.15229835 3.72978518,6.11885002 3.77282069,6.10721512 C3.81603313,6.0952527 3.86234825,6.10748235 3.89398841,6.13920983 L5.86021001,8.09938575 C5.89176997,8.13088795 5.90414548,8.17678391 5.89269193,8.21984849 C5.88123837,8.26291307 5.8476882,8.29663235 5.80463308,8.3083512 C5.52703693,8.38399905 5.24114826,8.42513682 4.9534549,8.43083095 C4.68578145,8.44140657 4.47495218,8.66240659 4.47738861,8.92986344 C4.47982503,9.19732029 4.69464554,9.41445481 4.96246737,9.42016739 L4.97097916,9.42016739 C6.14593386,9.39487719 7.26631085,8.92011232 8.10081141,8.09388666 C8.40778241,7.78568015 8.66850398,7.43477331 8.87488287,7.0520589 C9.52976479,5.85952063 9.60549791,4.43422754 9.08066771,3.17919921 C8.94367291,2.85831211 8.85638747,2.51847686 8.8218094,2.17136584 L9.97340342,3.32117573 C9.85911435,3.41551665 9.79391209,3.55656934 9.79615808,3.70461233 C9.80399631,3.97196514 10.0229614,4.18483766 10.2908428,4.18553283 L10.3053629,4.18553283 C10.7700114,4.16035225 11.229287,4.07395126 11.6712535,3.92857531 C11.7949547,3.88449753 11.89605,3.79315726 11.9522961,3.67465149 C12.0085422,3.55614573 12.015331,3.42018354 11.9711687,3.29667979 L11.9711687,3.29667979 Z M7.02632413,7.71644905 C6.97669341,7.75358761 6.90722744,7.74846576 6.86359889,7.70445104 L4.21543335,5.06038818 C4.32993942,4.89630966 4.45824768,4.74227724 4.59896421,4.59996431 C4.71556269,4.48444324 4.84039555,4.37751395 4.97248124,4.2800172 C5.02239899,4.24324669 5.09172083,4.24834224 5.13570716,4.29201522 L7.70977014,6.85959072 C7.7535109,6.90350891 7.75861435,6.97272336 7.72178678,7.02256378 C7.52794251,7.28858998 7.29362472,7.52271343 7.02732551,7.71644905 L7.02632413,7.71644905 Z" id="形状"></path>
                    </g>
                </g>
            </g>
        </g>
    </g>
</svg>